<svg width="178" height="147" viewBox="0 0 178 147" fill="none" xmlns="http://www.w3.org/2000/svg">
<g clip-path="url(#clip0)">
<g opacity="0.7">
<path opacity="0.7" d="M164.334 56.0747V53.9478H153.676V63.7803C153.676 64.3299 153.895 64.857 154.284 65.2457C154.674 65.6343 155.203 65.8526 155.754 65.8526H162.256C162.807 65.8526 163.336 65.6343 163.726 65.2457C164.115 64.857 164.334 64.3299 164.334 63.7803V61.5968C165.069 61.5968 165.774 61.3056 166.294 60.7873C166.814 60.2689 167.106 59.5659 167.106 58.8328C167.106 58.0998 166.814 57.3967 166.294 56.8784C165.774 56.36 165.069 56.0688 164.334 56.0688V56.0747ZM164.334 60.5392V57.1362C164.563 57.1284 164.791 57.1667 165.005 57.2487C165.218 57.3307 165.413 57.4547 165.578 57.6134C165.743 57.772 165.873 57.9621 165.963 58.1723C166.052 58.3825 166.098 58.6084 166.098 58.8367C166.098 59.065 166.052 59.291 165.963 59.5012C165.873 59.7113 165.743 59.9014 165.578 60.0601C165.413 60.2188 165.218 60.3428 165.005 60.4248C164.791 60.5068 164.563 60.545 164.334 60.5373V60.5392Z" fill="url(#paint0_linear)"/>
</g>
<path d="M163.999 56.4067C163.499 56.4067 163.01 56.5547 162.594 56.8319C162.178 57.1092 161.853 57.5032 161.662 57.9642C161.47 58.4253 161.42 58.9326 161.518 59.422C161.615 59.9114 161.856 60.361 162.21 60.7138C162.564 61.0667 163.015 61.307 163.506 61.4043C163.996 61.5017 164.505 61.4517 164.968 61.2607C165.43 61.0698 165.825 60.7464 166.103 60.3315C166.381 59.9166 166.529 59.4288 166.529 58.9298C166.529 58.2606 166.263 57.6189 165.788 57.1457C165.314 56.6726 164.67 56.4067 163.999 56.4067ZM163.999 60.483C163.69 60.483 163.387 60.3914 163.13 60.2199C162.872 60.0484 162.672 59.8046 162.553 59.5193C162.435 59.2341 162.404 58.9202 162.464 58.6174C162.524 58.3146 162.673 58.0365 162.892 57.8181C163.111 57.5998 163.39 57.4512 163.694 57.3909C163.998 57.3307 164.312 57.3616 164.598 57.4797C164.884 57.5979 165.129 57.798 165.301 58.0547C165.473 58.3114 165.565 58.6132 165.565 58.922C165.565 59.336 165.4 59.733 165.106 60.0258C164.813 60.3185 164.414 60.483 163.999 60.483Z" fill="#2196F3"/>
<path opacity="0.1" d="M163.999 56.4067C163.499 56.4067 163.01 56.5547 162.594 56.8319C162.178 57.1092 161.853 57.5032 161.662 57.9642C161.47 58.4253 161.42 58.9326 161.518 59.422C161.615 59.9114 161.856 60.361 162.21 60.7138C162.564 61.0667 163.015 61.307 163.506 61.4043C163.996 61.5017 164.505 61.4517 164.968 61.2607C165.43 61.0698 165.825 60.7464 166.103 60.3315C166.381 59.9166 166.529 59.4288 166.529 58.9298C166.529 58.2606 166.263 57.6189 165.788 57.1457C165.314 56.6726 164.67 56.4067 163.999 56.4067ZM163.999 60.483C163.69 60.483 163.387 60.3914 163.13 60.2199C162.872 60.0484 162.672 59.8046 162.553 59.5193C162.435 59.2341 162.404 58.9202 162.464 58.6174C162.524 58.3146 162.673 58.0365 162.892 57.8181C163.111 57.5998 163.39 57.4512 163.694 57.3909C163.998 57.3307 164.312 57.3616 164.598 57.4797C164.884 57.5979 165.129 57.798 165.301 58.0547C165.473 58.3114 165.565 58.6132 165.565 58.922C165.565 59.336 165.4 59.733 165.106 60.0258C164.813 60.3185 164.414 60.483 163.999 60.483Z" fill="black"/>
<path d="M154.259 54.4648H163.992V63.4408C163.992 63.9454 163.791 64.4293 163.433 64.7861C163.075 65.1429 162.59 65.3433 162.084 65.3433H156.167C155.661 65.3433 155.175 65.1429 154.818 64.7861C154.46 64.4293 154.259 63.9454 154.259 63.4408V54.4648Z" fill="#2196F3"/>
<path opacity="0.1" d="M162.238 54.4648V63.4408C162.238 63.6894 162.189 63.9355 162.094 64.1651C161.999 64.3948 161.859 64.6034 161.682 64.7792C161.506 64.9549 161.297 65.0944 161.067 65.1895C160.836 65.2846 160.59 65.3336 160.34 65.3336H161.319C161.822 65.3336 162.305 65.1341 162.661 64.7792C163.017 64.4242 163.217 63.9428 163.217 63.4408V54.4648H162.238Z" fill="black"/>
<path d="M156.172 47.2298C156.089 47.2324 156.007 47.2534 155.933 47.2911C155.858 47.3289 155.793 47.3826 155.742 47.4484C155.615 47.6786 155.846 47.9401 156.057 48.0982C156.448 48.3909 156.857 48.6836 157.123 49.0875C157.39 49.4914 157.472 50.0631 157.182 50.4534C156.804 50.9646 155.9 51.0758 155.812 51.7041C155.756 52.1081 156.106 52.4534 156.462 52.6564C157.339 53.1579 158.47 53.2906 159.104 54.075C159.366 53.5364 159.955 53.2242 160.54 53.0993C161.125 52.9744 161.734 52.9764 162.328 52.8866C162.426 52.8849 162.523 52.8599 162.609 52.8137C162.695 52.7676 162.77 52.7016 162.825 52.6213C162.992 52.2856 162.518 51.8817 162.683 51.5461C162.808 51.2885 163.172 51.31 163.438 51.2066C163.872 51.0388 164.05 50.4826 163.927 50.0358C163.804 49.5889 163.455 49.2377 163.09 48.9509C162.111 48.1704 160.918 47.7235 159.718 47.3898C159.16 47.2376 158.505 46.9996 157.926 46.9762C157.346 46.9528 156.732 47.1362 156.172 47.2298Z" fill="#EEEEEE"/>
<path d="M87.87 67.6284L67.5198 130.85" stroke="#E0E0E0" stroke-width="8" stroke-miterlimit="10"/>
<g opacity="0.7">
<path opacity="0.7" d="M103.637 137.971C101.135 138.115 98.9041 140.207 98.9041 140.207L97.8259 137.54L97.7379 137.569C98.2642 135.27 108.983 87.8654 98.2525 83.7794C90.0087 80.6397 81.264 76.7547 74.4114 76.8991V65.6948H84.0171V65.3045H91.6211C93.0788 64.2664 90.9597 63.5483 88.594 63.1054C88.6907 62.9953 88.7759 62.8756 88.8483 62.7483L101.027 40.9582C101.027 40.9582 103.829 36.3687 102.027 34.1735C100.225 31.9783 97.6244 39.762 97.6244 39.762L87.6195 54.1294C87.6195 54.1294 77.5109 43.6295 71.0967 38.4098C70.3839 37.705 69.5797 37.0986 68.7055 36.6068C67.5315 35.8165 66.6451 35.4048 66.2067 35.5667H66.195C65.2213 35.2977 64.2155 35.1611 63.2051 35.1608H62.4048V33.5237C64.1979 32.9333 65.8384 31.9556 67.2093 30.6604C68.5801 29.3653 69.6475 27.7845 70.3355 26.0307C71.4644 24.1661 72.1538 22.0702 72.3518 19.9011C72.5498 17.732 72.2511 15.5464 71.4782 13.5092C71.5976 13.4949 71.7124 13.4549 71.8148 13.3922C72.1768 13.16 72.2061 12.6507 72.1788 12.2214C72.0473 10.7836 71.5667 9.39937 70.7785 8.18836C69.9902 6.97735 68.9181 5.97599 67.6547 5.27086C66.6411 4.71864 65.4788 4.33618 64.7313 3.4581C64.0895 2.70295 63.8195 1.6473 63.0407 1.03069C62.1171 0.298948 60.7826 0.423832 59.6497 0.75165C58.3883 1.11576 57.1934 1.67831 56.1099 2.41806C54.885 3.25517 53.7774 4.33033 52.3666 4.79474C51.3648 5.12451 50.2768 5.1167 49.2671 5.42696C48.4926 5.67144 47.7862 6.09332 47.2045 6.65883C46.6228 7.22435 46.182 7.91779 45.9172 8.68368C45.6618 9.50358 45.5648 10.3644 45.6315 11.2204C45.0175 12.2432 44.5344 13.3385 44.1933 14.481L43.9663 14.6039L44.1854 14.5064C43.42 17.0827 43.3945 19.8216 44.1119 22.4116C44.8293 25.0017 46.2608 27.3393 48.2437 29.1586C49.8107 31.1929 51.9549 32.7104 54.3977 33.5139V35.4945C52.6549 35.8694 50.9921 36.5485 49.4863 37.5005C49.4863 37.5005 49.3591 37.5785 49.1399 37.7268L49.0734 37.7717C47.5921 38.7746 42.6298 42.4353 42.7981 46.3925C42.7981 46.5447 42.7981 46.6976 42.7981 46.8511C42.5272 47.9944 42.39 49.1652 42.3891 50.34V79.069C42.384 82.2418 43.4519 85.3237 45.4201 87.8166C41.2444 88.7493 38.5833 90.1582 38.5833 91.7407C38.6033 91.87 38.6033 92.0016 38.5833 92.1309C38.5833 94.9408 46.9973 97.2199 57.3935 97.2199C58.6498 97.2199 59.8766 97.1868 61.0644 97.1224L72.8049 106.598L54.0005 136.742C54.0005 136.742 47.7976 141.53 52.5995 143.128C57.4014 144.726 67.2086 145.922 67.2086 145.922C67.2086 145.922 68.8092 143.128 66.6079 141.932C64.4065 140.736 61.4049 141.333 61.4049 141.333L61.7962 138.939C61.7962 138.939 94.4153 111 87.6117 101.423C86.3104 99.5908 85.0092 97.7 83.6982 95.8384L88.8327 96.3048L90.0067 140.162L90.1535 140.115C89.86 140.978 87.7858 147.48 92.3842 146.379C97.3074 145.208 106.263 141.046 106.263 141.046C106.263 141.046 106.14 137.826 103.637 137.971ZM84.0171 62.5063L74.4114 59.7257V51.5303L84.8507 62.5727C84.338 62.5317 84.0171 62.5063 84.0171 62.5063Z" fill="url(#paint1_linear)"/>
</g>
<path d="M58.323 33.8711C66.1039 33.8711 72.4116 27.581 72.4116 19.8218C72.4116 12.0626 66.1039 5.77246 58.323 5.77246C50.5421 5.77246 44.2344 12.0626 44.2344 19.8218C44.2344 27.581 50.5421 33.8711 58.323 33.8711Z" fill="black"/>
<path d="M74.3684 52.0183L85.1207 63.4002C85.347 63.6401 85.6268 63.8234 85.9374 63.9352C86.248 64.0469 86.5806 64.0841 86.9083 64.0436C87.236 64.0031 87.5495 63.8861 87.8234 63.7021C88.0972 63.5181 88.3237 63.2723 88.4844 62.9846L100.393 41.6784L97.0667 40.5076L87.2829 54.5569C87.2829 54.5569 68.9149 35.4655 66.3457 36.4099C63.7764 37.3543 74.3684 52.0183 74.3684 52.0183Z" fill="#2196F3"/>
<path d="M53.8226 91.4346L37.9729 132.412" stroke="#BDBDBD" stroke-width="5" stroke-miterlimit="10"/>
<path d="M61.6494 91.4346L77.4991 132.412" stroke="#BDBDBD" stroke-width="5" stroke-miterlimit="10"/>
<path d="M57.736 96.7031C67.8944 96.7031 76.1295 94.4753 76.1295 91.7273C76.1295 88.9792 67.8944 86.7515 57.736 86.7515C47.5776 86.7515 39.3425 88.9792 39.3425 91.7273C39.3425 94.4753 47.5776 96.7031 57.736 96.7031Z" fill="#B84733"/>
<path d="M57.736 96.3125C67.8944 96.3125 76.1295 94.0847 76.1295 91.3367C76.1295 88.5886 67.8944 86.3608 57.736 86.3608C47.5776 86.3608 39.3425 88.5886 39.3425 91.3367C39.3425 94.0847 47.5776 96.3125 57.736 96.3125Z" fill="#F55F44"/>
<path d="M49.9951 100.436L67.3496 105.768" stroke="#BDBDBD" stroke-width="5" stroke-miterlimit="10"/>
<path d="M65.4751 100.436L48.1206 105.768" stroke="#BDBDBD" stroke-width="5" stroke-miterlimit="10"/>
<path d="M57.9492 36.0137H63.4105C66.3167 36.0137 69.1039 37.1649 71.1589 39.2142C73.2139 41.2635 74.3684 44.0428 74.3684 46.9409V75.8201H43.0603V50.865C43.0598 48.9149 43.4445 46.9838 44.1925 45.1819C44.9405 43.3801 46.0372 41.7429 47.4198 40.3638C48.8024 38.9846 50.4439 37.8906 52.2506 37.1442C54.0573 36.3978 55.9937 36.0137 57.9492 36.0137Z" fill="#2196F3"/>
<path d="M43.0603 75.8198H74.3684V92.7961H56.9533C53.2686 92.7961 49.7349 91.3365 47.1295 88.7383C44.524 86.1402 43.0603 82.6163 43.0603 78.9419V75.8198Z" fill="#39447A"/>
<path opacity="0.05" d="M43.4828 47.7333L62.6277 65.8803H83.7606V63.1485L65.5628 57.88L49.9968 38.7104C49.9968 38.7104 42.9271 43.0599 43.4828 47.7333Z" fill="black"/>
<path d="M43.4828 47.3431L62.6277 65.4902H83.7606V62.7584L65.5628 57.4899L49.9968 38.3203C49.9968 38.3203 42.9271 42.6698 43.4828 47.3431Z" fill="#2196F3"/>
<path d="M83.7607 62.75C83.7607 62.75 93.9359 63.5305 91.1964 65.4818H83.7607V62.75Z" fill="#FDA57D"/>
<path d="M97.0667 40.5058C97.0667 40.5058 99.6104 32.8958 101.372 35.0422C103.133 37.1886 100.393 41.6766 100.393 41.6766L97.0667 40.5058Z" fill="#FDA57D"/>
<path opacity="0.05" d="M43.0603 75.8237V76.7342L74.3684 76.8007V75.8237H43.0603Z" fill="black"/>
<path d="M67.414 93.8811L88.4687 95.7954L89.6153 138.673L97.1547 136.226C97.1547 136.226 108.431 87.6389 97.6791 83.5412C86.9267 79.4435 75.3036 74.0521 68.365 78.4483C61.4263 82.8446 67.414 93.8811 67.414 93.8811Z" fill="#39447A"/>
<path opacity="0.1" d="M68.6938 80.7021C68.6938 80.7021 80.2387 86.556 81.8041 93.1904L68.6938 80.7021Z" fill="black"/>
<path d="M56.3662 92.605L72.8029 105.874L54.4094 135.338L62.0408 137.485C62.0408 137.485 93.9359 110.167 87.2829 100.8C80.6299 91.4342 73.977 80.507 65.7586 80.3118C57.5402 80.1167 56.3662 92.605 56.3662 92.605Z" fill="#39447A"/>
<path opacity="0.05" d="M82.1953 49.4814L86.3045 56.5061L87.2829 54.5548L82.1953 49.4814Z" fill="black"/>
<path d="M54.4095 135.338C54.4095 135.338 48.3436 140.021 53.0398 141.583C57.736 143.144 67.3241 144.314 67.3241 144.314C67.3241 144.314 68.8895 141.583 66.7371 140.412C64.5847 139.241 61.6495 139.826 61.6495 139.826L62.0409 137.485L54.4095 135.338Z" fill="#333333"/>
<path d="M89.7914 138.541C89.7914 138.541 87.1263 145.909 91.9439 144.758C96.7614 143.606 105.516 139.542 105.516 139.542C105.516 139.542 105.397 136.398 102.949 136.539C100.501 136.679 98.3209 138.724 98.3209 138.724L97.2663 136.115L89.7914 138.541Z" fill="#333333"/>
<path d="M62.6278 33.0906C62.6278 30.9352 60.8757 29.188 58.7143 29.188C56.5529 29.188 54.8008 30.9352 54.8008 33.0906V36.9932C54.8008 39.1485 56.5529 40.8958 58.7143 40.8958C60.8757 40.8958 62.6278 39.1485 62.6278 36.9932V33.0906Z" fill="#FDA57D"/>
<path opacity="0.05" d="M58.7143 29.5781C57.6764 29.5781 56.6809 29.9893 55.947 30.7212C55.2131 31.453 54.8008 32.4457 54.8008 33.4807V34.8076C57.3428 35.6415 60.0858 35.6415 62.6278 34.8076V33.4807C62.6278 32.4457 62.2155 31.453 61.4816 30.7212C60.7476 29.9893 59.7522 29.5781 58.7143 29.5781Z" fill="black"/>
<path d="M58.7141 35.0416C65.6305 35.0416 71.2374 29.4503 71.2374 22.5532C71.2374 15.6561 65.6305 10.0649 58.7141 10.0649C51.7978 10.0649 46.1909 15.6561 46.1909 22.5532C46.1909 29.4503 51.7978 35.0416 58.7141 35.0416Z" fill="#FDA57D"/>
<path opacity="0.05" d="M46.1911 21.986C46.1911 21.986 49.322 22.79 51.083 19.2425C52.8441 15.695 54.2138 13.7594 61.4538 15.8551C68.6938 17.9507 70.1496 18.2083 70.4979 16.2258C70.7367 14.8716 68.1616 11.5798 66.5062 9.63237C65.7 8.68209 64.3831 8.11426 62.984 8.11426H54.8009L49.909 10.3719L46.1911 13.5974L45.4084 17.9527L46.1911 21.986Z" fill="black"/>
<path d="M46.1911 21.5954C46.1911 21.5954 49.322 22.3993 51.083 18.8519C52.8441 15.3044 54.2138 13.3687 61.4538 15.4644C68.6938 17.5601 70.1496 17.8177 70.4979 15.8352C70.7367 14.481 68.1616 11.1891 66.5062 9.24174C65.7 8.29146 64.3831 7.72363 62.984 7.72363H54.8009L49.909 9.98128L46.1911 13.2068L45.4084 17.5621L46.1911 21.5954Z" fill="black"/>
<path d="M47.4628 24.1144C48.1653 24.1144 48.7347 22.9787 48.7347 21.5777C48.7347 20.1767 48.1653 19.041 47.4628 19.041C46.7604 19.041 46.1909 20.1767 46.1909 21.5777C46.1909 22.9787 46.7604 24.1144 47.4628 24.1144Z" fill="#FDA57D"/>
<path d="M46.5532 15.0503C46.2636 13.417 45.9779 11.7018 46.5062 10.1291C46.765 9.38012 47.196 8.70198 47.7648 8.14899C48.3336 7.59599 49.0244 7.18351 49.7818 6.94458C50.7602 6.64213 51.8325 6.64798 52.8128 6.32602C54.1923 5.87332 55.2744 4.82157 56.4739 4.00202C57.5335 3.27869 58.702 2.72866 59.9354 2.37269C61.0429 2.05267 62.3481 1.92974 63.2521 2.64587C64.0113 3.24882 64.2755 4.28106 64.9036 5.01865C65.6355 5.87722 66.7704 6.24992 67.7624 6.79043C68.9983 7.48094 70.0467 8.46145 70.8169 9.64705C71.5872 10.8327 72.056 12.1876 72.1828 13.5946C72.216 14.0141 72.1828 14.5117 71.8266 14.7381C71.6064 14.8501 71.3582 14.8956 71.1124 14.8688C66.107 14.7966 61.0958 14.7264 56.1119 14.2678C54.5622 14.1254 53.0105 13.9458 51.4548 14.0044C49.0512 14.0994 46.7043 14.7607 44.6062 15.9342" fill="black"/>
<g opacity="0.7">
<path opacity="0.7" d="M34.0476 101.628C34.3702 100.328 34.2911 98.9619 33.8207 97.7082C33.3503 96.4544 32.5106 95.372 31.4119 94.6029C30.8248 94.2126 30.183 93.9141 29.6508 93.4633C28.7585 92.714 28.2478 91.6077 27.8799 90.5013C26.9955 87.8514 26.7157 84.8796 25.164 82.4853C23.7512 80.3057 21.0019 79.6677 18.5619 79.4511C17.6735 79.3711 16.7401 79.3301 15.9281 79.6969C14.5681 80.3096 13.9205 81.9117 13.8598 83.4044C13.7991 84.8971 14.1866 86.3587 14.2844 87.8417C14.3822 89.3246 14.1161 90.9637 13.0164 91.9667C11.9167 92.9697 10.3455 93.0926 8.88768 93.2936C6.97915 93.5575 5.10394 94.0219 3.29333 94.679C1.77293 95.2312 0.0803375 96.2264 0.00793761 97.8381C-0.050765 99.1553 1.01567 100.207 1.81598 101.255C3.31289 103.206 4.06037 105.799 3.55357 108.209C3.03699 110.662 1.30918 112.768 0.994143 115.255C0.913916 115.888 0.937397 116.559 1.24461 117.117C1.48853 117.51 1.8101 117.849 2.18972 118.114C3.12896 118.838 4.17778 119.419 5.06615 120.204C6.91919 121.841 7.92301 124.216 8.69592 126.561C8.77028 126.788 8.83681 127.016 8.90725 127.242H7.08551C5.30031 127.247 3.5897 127.957 2.32737 129.216C1.06503 130.475 0.353576 132.18 0.348414 133.961C0.353576 135.741 1.06503 137.447 2.32737 138.705C3.5897 139.964 5.30031 140.674 7.08551 140.679H25.2833C27.0685 140.674 28.7791 139.964 30.0415 138.705C31.3038 137.447 32.0153 135.741 32.0204 133.961C32.0183 132.175 31.3058 130.464 30.0394 129.202C28.7729 127.94 27.056 127.231 25.2657 127.231H20.2838C21.4579 125.656 22.6945 124.177 24.5143 123.57C26.3341 122.963 28.5354 123.32 29.9639 122.054C30.6605 121.437 31.0303 120.524 31.2005 119.611C31.5021 117.957 31.22 116.249 30.4022 114.779C29.8289 113.759 28.9914 112.828 28.8094 111.677C28.6548 110.689 29.0051 109.688 29.4962 108.812C30.8718 106.317 33.306 104.379 34.0476 101.628Z" fill="url(#paint2_linear)"/>
</g>
<path d="M18.4892 80.905C17.6439 80.8289 16.7556 80.7898 15.9807 81.1391C14.6873 81.7245 14.0689 83.2485 14.0102 84.6632C13.9515 86.0779 14.3214 87.475 14.4133 88.8897C14.5053 90.3044 14.2529 91.8595 13.206 92.8176C12.1591 93.7757 10.6622 93.8889 9.27489 94.0801C7.45715 94.3312 5.67113 94.7734 3.94666 95.3992C2.49866 95.9241 0.886294 96.8744 0.815851 98.4081C0.761062 99.6628 1.77466 100.664 2.53779 101.661C3.96427 103.528 4.67457 105.989 4.19125 108.284C3.69815 110.625 2.05252 112.625 1.75509 114.994C1.67878 115.595 1.7003 116.235 1.99382 116.766C2.22602 117.14 2.53228 117.464 2.89392 117.716C3.78816 118.405 4.7861 118.959 5.63338 119.706C7.39445 121.268 8.35326 123.527 9.089 125.755C9.81274 127.953 10.3797 130.199 10.7855 132.476C12.3059 131.5 14.2705 131.516 15.8926 130.72C19.3463 129.032 20.5086 124.138 24.156 122.914C25.8819 122.339 27.9854 122.676 29.3453 121.47C30.0087 120.885 30.3609 120.015 30.5194 119.145C30.8064 117.573 30.5403 115.951 29.766 114.553C29.2201 113.577 28.4217 112.699 28.2476 111.599C28.0989 110.658 28.4432 109.706 28.9011 108.867C30.2122 106.49 32.5309 104.646 33.2373 102.026C33.5463 100.787 33.4718 99.4845 33.0236 98.2891C32.5755 97.0936 31.7747 96.0616 30.7268 95.3289C30.173 94.9562 29.5527 94.6733 29.044 94.244C28.1928 93.5299 27.7095 92.4761 27.3573 91.4244C26.5139 88.9014 26.2478 86.07 24.7704 83.7909C23.43 81.7187 20.8119 81.1099 18.4892 80.905Z" fill="#4DB6AC"/>
<path opacity="0.6" d="M18.4639 80.9907C18.4639 80.9907 21.6729 123.843 13.3293 131.209" stroke="#535461" stroke-width="0.5" stroke-miterlimit="10"/>
<path d="M24.8819 126.411H7.55877C4.01628 126.411 1.14453 129.275 1.14453 132.807V132.809C1.14453 136.342 4.01628 139.206 7.55877 139.206H24.8819C28.4244 139.206 31.2961 136.342 31.2961 132.809V132.807C31.2961 129.275 28.4244 126.411 24.8819 126.411Z" fill="#2196F3"/>
<path opacity="0.6" d="M0.82373 97.6239C0.82373 97.6239 9.02448 96.6697 19.0372 102.744" stroke="#535461" stroke-width="0.5" stroke-miterlimit="10"/>
<path opacity="0.6" d="M18.877 107.859C18.877 107.859 23.4342 100.342 33.218 98.9043" stroke="#535461" stroke-width="0.5" stroke-miterlimit="10"/>
<path opacity="0.6" d="M1.62598 115.063C1.62598 115.063 12.9928 113.141 18.2153 116.341" stroke="#535461" stroke-width="0.5" stroke-miterlimit="10"/>
<path opacity="0.6" d="M17.5676 120.731C17.5676 120.731 23.5181 118.038 30.2122 120.226" stroke="#535461" stroke-width="0.5" stroke-miterlimit="10"/>
<path d="M113.828 80.7361C113.906 80.7361 113.981 80.7052 114.036 80.6502C114.091 80.5953 114.122 80.5207 114.122 80.443C114.122 80.3652 114.091 80.2907 114.036 80.2357C113.981 80.1808 113.906 80.1499 113.828 80.1499C113.75 80.1499 113.676 80.1808 113.621 80.2357C113.566 80.2907 113.535 80.3652 113.535 80.443C113.535 80.5207 113.566 80.5953 113.621 80.6502C113.676 80.7052 113.75 80.7361 113.828 80.7361Z" fill="url(#paint3_linear)"/>
<path d="M156.896 67.6284L177.246 139.844" stroke="#E0E0E0" stroke-width="8" stroke-miterlimit="10"/>
<path d="M177.329 65.5132H67.4355V69.7826H177.329V65.5132Z" fill="#E0E0E0"/>
<path d="M111.253 64.5063H95.7948C95.0924 64.5063 94.5229 65.0742 94.5229 65.7747C94.5229 66.4752 95.0924 67.0431 95.7948 67.0431H111.253C111.956 67.0431 112.525 66.4752 112.525 65.7747C112.525 65.0742 111.956 64.5063 111.253 64.5063Z" fill="#535461"/>
<g opacity="0.7">
<path opacity="0.7" d="M144.702 36.2241H111.003C107.953 36.2241 105.481 38.6895 105.481 41.7307V61.5676C105.481 64.6088 107.953 67.0741 111.003 67.0741H144.702C147.752 67.0741 150.224 64.6088 150.224 61.5676V41.7307C150.224 38.6895 147.752 36.2241 144.702 36.2241Z" fill="url(#paint4_linear)"/>
</g>
<path d="M143.411 36.792H111.529C108.629 36.792 106.277 39.1368 106.277 42.0293V61.8349C106.277 64.7274 108.629 67.0722 111.529 67.0722H143.411C146.311 67.0722 148.663 64.7274 148.663 61.8349V42.0293C148.663 39.1368 146.311 36.792 143.411 36.792Z" fill="#3E3F49"/>
<path d="M143.998 36.792H112.116C109.216 36.792 106.864 39.1368 106.864 42.0293V61.8349C106.864 64.7274 109.216 67.0722 112.116 67.0722H143.998C146.898 67.0722 149.249 64.7274 149.249 61.8349V42.0293C149.249 39.1368 146.898 36.792 143.998 36.792Z" fill="#535461"/>
<path d="M130.038 53.0917C130.794 53.0917 131.408 52.4802 131.408 51.7258C131.408 50.9714 130.794 50.3599 130.038 50.3599C129.281 50.3599 128.668 50.9714 128.668 51.7258C128.668 52.4802 129.281 53.0917 130.038 53.0917Z" fill="#E0E0E0"/>
</g>
<defs>
<linearGradient id="paint0_linear" x1="160.391" y1="65.8526" x2="160.391" y2="53.9478" gradientUnits="userSpaceOnUse">
<stop stop-color="#808080" stop-opacity="0.25"/>
<stop offset="0.54" stop-color="#808080" stop-opacity="0.12"/>
<stop offset="1" stop-color="#808080" stop-opacity="0.1"/>
</linearGradient>
<linearGradient id="paint1_linear" x1="35030.6" y1="120331" x2="35030.6" y2="11081.4" gradientUnits="userSpaceOnUse">
<stop stop-color="#808080" stop-opacity="0.25"/>
<stop offset="0.54" stop-color="#808080" stop-opacity="0.12"/>
<stop offset="1" stop-color="#808080" stop-opacity="0.1"/>
</linearGradient>
<linearGradient id="paint2_linear" x1="5028.73" y1="39128.9" x2="11022.3" y2="39128.9" gradientUnits="userSpaceOnUse">
<stop stop-color="#808080" stop-opacity="0.25"/>
<stop offset="0.54" stop-color="#808080" stop-opacity="0.12"/>
<stop offset="1" stop-color="#808080" stop-opacity="0.1"/>
</linearGradient>
<linearGradient id="paint3_linear" x1="541.238" y1="365.652" x2="541.238" y2="363.894" gradientUnits="userSpaceOnUse">
<stop stop-color="#808080" stop-opacity="0.25"/>
<stop offset="0.54" stop-color="#808080" stop-opacity="0.12"/>
<stop offset="1" stop-color="#808080" stop-opacity="0.1"/>
</linearGradient>
<linearGradient id="paint4_linear" x1="29340.2" y1="10561.6" x2="29340.2" y2="5684.25" gradientUnits="userSpaceOnUse">
<stop stop-color="#808080" stop-opacity="0.25"/>
<stop offset="0.54" stop-color="#808080" stop-opacity="0.12"/>
<stop offset="1" stop-color="#808080" stop-opacity="0.1"/>
</linearGradient>
<clipPath id="clip0">
<rect width="178" height="146" fill="white" transform="translate(0 0.5)"/>
</clipPath>
</defs>
</svg>
