<svg width="236" height="181" viewBox="0 0 236 181" fill="none" xmlns="http://www.w3.org/2000/svg">
<g clip-path="url(#clip0)">
<path opacity="0.1" d="M220.693 102.395C212.034 115.357 214.226 133.374 218.585 147.644C220.053 152.421 221.712 157.469 220.727 162.749C219.521 169.206 214.605 174.179 209.566 176.963C200.383 182.04 189.723 181.623 181.815 175.88C174.981 170.915 170.336 162.444 163.361 157.724C151.703 149.852 136.137 154.063 122.695 160.829C113.184 165.61 102.743 171.708 93.7299 167.883C87.3884 165.191 83.2781 157.941 81.2356 150.113C80.2499 146.333 79.6041 142.216 77.5028 139.3C76.2445 137.568 74.5669 136.379 72.8284 135.412C56.9515 126.493 36.0038 133.086 20.6428 123.056C10.277 116.294 4.10946 102.7 1.80688 88.2692C-0.495706 73.8382 0.63881 58.489 2.17806 43.3839C3.27064 32.651 4.83715 21.1688 10.8536 12.5645C17.2183 3.46348 27.5421 -0.411911 36.6476 0.679542C45.7531 1.77099 53.7597 7.17609 60.7283 13.7018C69.4374 21.8408 77.3728 32.1626 88.4306 34.9883C95.9612 36.9187 104.077 35.1073 111.991 34.1535C125.224 32.5779 138.337 33.4544 151.362 34.4958C163.833 35.4933 176.384 36.6641 188.096 40.9172C196.384 43.9265 202.847 49.9201 210.617 53.9061C215.681 56.5043 221.322 56.9593 226.068 60.3755C231.914 64.5807 237.082 72.2062 235.05 81.6286C233.118 90.6002 225.288 95.5086 220.693 102.395Z" fill="#2196F3"/>
<path opacity="0.1" d="M193.785 54.0127H185.21V66.9307H193.785V54.0127Z" fill="#2196F3"/>
<path opacity="0.1" d="M192.95 55.269H186.042V65.6744H192.95V55.269Z" fill="#2196F3"/>
<path opacity="0.1" d="M180.974 45.0391H167.805V57.9571H180.974V45.0391Z" fill="#2196F3"/>
<path opacity="0.1" d="M179.693 46.2949H169.084V56.7003H179.693V46.2949Z" fill="#2196F3"/>
<path opacity="0.1" d="M54.3043 25.8188H14.051V26.8852H54.3043V25.8188Z" fill="#2196F3"/>
<path opacity="0.1" d="M54.3043 31.0332H14.051V32.0996H54.3043V31.0332Z" fill="#2196F3"/>
<path d="M86.0687 94.96H81.9563V140.692H86.0687V94.96Z" fill="#D6D6E3"/>
<path d="M206.189 99.7624V57.5776C206.19 56.4018 206.66 55.2744 207.495 54.4432C208.331 53.612 209.464 53.145 210.646 53.145C211.826 53.1472 212.957 53.6151 213.79 54.4461C214.624 55.2771 215.093 56.4033 215.093 57.5776V108.632C215.093 109.808 214.624 110.936 213.788 111.767C212.952 112.599 211.819 113.066 210.637 113.066H183.038C181.856 113.066 180.722 112.599 179.887 111.767C179.051 110.936 178.581 109.808 178.581 108.632C178.581 107.456 179.051 106.328 179.887 105.496C180.722 104.664 181.856 104.197 183.038 104.197H201.733C202.915 104.197 204.048 103.73 204.884 102.898C205.72 102.066 206.189 100.939 206.189 99.7624Z" fill="#AEBEE1"/>
<path d="M206.189 99.7624V57.5776C206.19 56.4018 206.66 55.2744 207.495 54.4432C208.331 53.612 209.464 53.145 210.646 53.145C211.826 53.1472 212.957 53.6151 213.79 54.4461C214.624 55.2771 215.093 56.4033 215.093 57.5776V108.632C215.093 109.808 214.624 110.936 213.788 111.767C212.952 112.599 211.819 113.066 210.637 113.066H183.038C181.856 113.066 180.722 112.599 179.887 111.767C179.051 110.936 178.581 109.808 178.581 108.632C178.581 107.456 179.051 106.328 179.887 105.496C180.722 104.664 181.856 104.197 183.038 104.197H201.733C202.915 104.197 204.048 103.73 204.884 102.898C205.72 102.066 206.189 100.939 206.189 99.7624Z" fill="#535461"/>
<path d="M178.588 108.394C178.649 107.26 179.145 106.194 179.972 105.413C180.8 104.632 181.897 104.197 183.038 104.197H201.733C202.915 104.197 204.049 103.73 204.884 102.898C205.72 102.066 206.19 100.939 206.19 99.7624V57.5776C206.189 56.4378 206.629 55.3414 207.419 54.5161C208.209 53.6907 209.288 53.1997 210.432 53.145V108.394H178.588Z" fill="#D6D6E3"/>
<path d="M40.8689 101.185V59.0006C40.8689 57.8263 40.4008 56.6999 39.5674 55.8685C38.7339 55.0371 37.6032 54.5687 36.4231 54.5659C35.2412 54.5659 34.1077 55.0331 33.272 55.8648C32.4363 56.6965 31.9668 57.8244 31.9668 59.0006V110.055C31.9654 110.638 32.0797 111.216 32.303 111.755C32.5263 112.294 32.8544 112.784 33.2683 113.197C33.6823 113.61 34.174 113.938 34.7153 114.161C35.2567 114.385 35.837 114.5 36.4231 114.5H64.0206C65.2025 114.5 66.3359 114.033 67.1716 113.201C68.0074 112.369 68.4769 111.241 68.4769 110.065C68.4769 108.889 68.0074 107.761 67.1716 106.929C66.3359 106.098 65.2025 105.63 64.0206 105.63H45.3273C44.741 105.631 44.1604 105.516 43.6188 105.293C43.0773 105.069 42.5853 104.742 42.1711 104.329C41.757 103.916 41.4287 103.426 41.2053 102.886C40.9818 102.347 40.8675 101.769 40.8689 101.185Z" fill="#AEBEE1"/>
<path d="M40.8689 101.185V59.0006C40.8689 57.8263 40.4008 56.6999 39.5674 55.8685C38.7339 55.0371 37.6032 54.5687 36.4231 54.5659C35.2412 54.5659 34.1077 55.0331 33.272 55.8648C32.4363 56.6965 31.9668 57.8244 31.9668 59.0006V110.055C31.9654 110.638 32.0797 111.216 32.303 111.755C32.5263 112.294 32.8544 112.784 33.2683 113.197C33.6823 113.61 34.174 113.938 34.7153 114.161C35.2567 114.385 35.837 114.5 36.4231 114.5H64.0206C65.2025 114.5 66.3359 114.033 67.1716 113.201C68.0074 112.369 68.4769 111.241 68.4769 110.065C68.4769 108.889 68.0074 107.761 67.1716 106.929C66.3359 106.098 65.2025 105.63 64.0206 105.63H45.3273C44.741 105.631 44.1604 105.516 43.6188 105.293C43.0773 105.069 42.5853 104.742 42.1711 104.329C41.757 103.916 41.4287 103.426 41.2053 102.886C40.9818 102.347 40.8675 101.769 40.8689 101.185Z" fill="#535461"/>
<path d="M68.4706 109.816C68.4094 108.683 67.9139 107.616 67.086 106.835C66.2582 106.055 65.1611 105.62 64.0206 105.62H45.3273C44.7419 105.62 44.1622 105.505 43.6213 105.283C43.0804 105.06 42.5889 104.733 42.1749 104.321C41.7608 103.91 41.4324 103.421 41.2083 102.882C40.9842 102.344 40.8689 101.767 40.8689 101.185V59.0002C40.8687 57.8621 40.4288 56.7677 39.6403 55.9434C38.8518 55.1191 37.775 54.628 36.6328 54.5718V109.816H68.4706Z" fill="#D6D6E3"/>
<path d="M167.429 94.96H163.317V141.759H167.429V94.96Z" fill="#D6D6E3"/>
<path opacity="0.1" d="M86.0687 94.96H81.9563V98.3408H86.0687V94.96Z" fill="black"/>
<path opacity="0.1" d="M167.429 94.96H163.317V98.3408H167.429V94.96Z" fill="black"/>
<path opacity="0.1" d="M96.6449 67.1094C96.5792 67.8301 96.496 68.5605 96.3953 69.3006H95.8145V67.1094H96.6449Z" fill="black"/>
<path d="M113.495 89.8743C113.508 90.6151 112.971 91.2224 112.306 91.2224H99.7549V89.9202H110.198C110.649 89.9202 110.93 89.3776 110.704 88.9435L101.233 69.7752C101.166 69.6371 101.062 69.52 100.933 69.4368C100.803 69.3536 100.653 69.3075 100.499 69.3036H95.8145V67.1123H101.73C101.838 67.115 101.943 67.1472 102.034 67.2054C102.124 67.2635 102.197 67.3454 102.244 67.442L113.101 88.3112C113.351 88.7952 113.486 89.33 113.495 89.8743Z" fill="#535461"/>
<path d="M90.443 86.3969L90.2711 86.6849L88.6626 85.6164L93.6389 47.5366H94.9203C94.9203 47.5366 94.9727 47.7119 95.0587 48.0458C95.9164 51.3369 100.129 69.975 90.443 86.3969Z" fill="#535461"/>
<path opacity="0.1" d="M95.0566 48.0458L90.443 86.3969L90.2711 86.6849L88.6626 85.6164L93.6389 47.5366H94.9203C94.9203 47.5366 94.9706 47.7182 95.0566 48.0458Z" fill="black"/>
<path d="M91.9283 47.1425L87.2075 86.3652L90.2267 86.7251L94.9474 47.5024L91.9283 47.1425Z" fill="#D6D6E3"/>
<path d="M76.8605 89.8885C76.86 89.9829 76.822 90.0734 76.7549 90.1402C76.6878 90.207 76.5969 90.2448 76.5019 90.2453H75.9651C75.87 90.2453 75.7788 90.2077 75.7115 90.1408C75.6443 90.0739 75.6065 89.9831 75.6065 89.8885C75.6048 89.8746 75.6048 89.8606 75.6065 89.8467C75.6172 89.7606 75.6591 89.6813 75.7243 89.6237C75.7896 89.566 75.8737 89.534 75.9609 89.5337H76.4978C76.5774 89.5345 76.6546 89.5616 76.7172 89.6107C76.7798 89.6597 76.8243 89.7281 76.8438 89.805C76.853 89.832 76.8586 89.86 76.8605 89.8885Z" fill="#E3EDF9"/>
<path d="M78.4694 89.8885C78.4688 89.9829 78.4309 90.0734 78.3637 90.1402C78.2966 90.207 78.2057 90.2448 78.1108 90.2453H77.5739C77.4788 90.2453 77.3876 90.2077 77.3204 90.1408C77.2531 90.0739 77.2153 89.9831 77.2153 89.8885C77.2155 89.8552 77.2205 89.8222 77.23 89.7904C77.2459 89.7325 77.277 89.6799 77.3202 89.638C77.353 89.6048 77.3922 89.5784 77.4354 89.5605C77.4786 89.5426 77.525 89.5335 77.5718 89.5337H78.1087C78.1779 89.5334 78.2457 89.5529 78.3041 89.5899C78.3625 89.6269 78.4089 89.6798 78.4379 89.7424C78.4584 89.7884 78.4691 89.8381 78.4694 89.8885Z" fill="#E3EDF9"/>
<path d="M79.8994 89.8881C79.8988 89.9826 79.8609 90.073 79.7938 90.1399C79.7266 90.2067 79.6357 90.2444 79.5408 90.245H79.0039C78.9088 90.245 78.8176 90.2074 78.7504 90.1405C78.6831 90.0735 78.6453 89.9828 78.6453 89.8881C78.6444 89.837 78.6552 89.7863 78.6768 89.7399C78.7059 89.6783 78.7518 89.6261 78.8092 89.5892C78.8667 89.5523 78.9334 89.5322 79.0018 89.5313H79.5387C79.5859 89.531 79.6326 89.54 79.6763 89.5579C79.7199 89.5757 79.7595 89.602 79.7929 89.6352C79.8262 89.6684 79.8526 89.7078 79.8706 89.7512C79.8885 89.7946 79.8976 89.8412 79.8973 89.8881H79.8994Z" fill="#E3EDF9"/>
<path d="M81.5099 89.8885C81.5093 89.9829 81.4714 90.0734 81.4042 90.1402C81.3371 90.207 81.2462 90.2448 81.1513 90.2453H80.6144C80.5489 90.2453 80.4846 90.2273 80.4285 90.1935C80.3725 90.1596 80.3269 90.1111 80.2966 90.0532C80.2663 89.9953 80.2526 89.9303 80.2569 89.8652C80.2611 89.8001 80.2833 89.7374 80.3208 89.6839L80.3628 89.638C80.3956 89.6048 80.4348 89.5784 80.478 89.5605C80.5212 89.5426 80.5676 89.5335 80.6144 89.5337H81.1513C81.2002 89.5343 81.2484 89.5448 81.2931 89.5645C81.3378 89.5842 81.378 89.6128 81.4113 89.6485C81.4743 89.7126 81.5097 89.7987 81.5099 89.8885Z" fill="#E3EDF9"/>
<path opacity="0.1" d="M76.8501 89.8032C76.8573 89.8312 76.8609 89.8599 76.8606 89.8888C76.86 89.9833 76.8221 90.0737 76.7549 90.1405C76.6878 90.2073 76.5969 90.2451 76.502 90.2457H75.9651C75.87 90.2457 75.7788 90.2081 75.7115 90.1411C75.6443 90.0742 75.6065 89.9834 75.6065 89.8888C75.6048 89.8749 75.6048 89.8609 75.6065 89.847L76.8501 89.8032Z" fill="black"/>
<path opacity="0.1" d="M78.44 89.7466C78.4589 89.7908 78.4689 89.8383 78.4694 89.8864C78.4688 89.9809 78.4309 90.0713 78.3637 90.1381C78.2966 90.205 78.2057 90.2427 78.1108 90.2433H77.5739C77.4788 90.2433 77.3876 90.2057 77.3204 90.1388C77.2531 90.0718 77.2153 89.9811 77.2153 89.8864C77.2155 89.8532 77.2205 89.8202 77.23 89.7883L78.44 89.7466Z" fill="black"/>
<path opacity="0.1" d="M79.8465 89.6987C79.8818 89.7551 79.9007 89.8201 79.901 89.8865C79.9005 89.981 79.8625 90.0715 79.7954 90.1383C79.7283 90.2051 79.6374 90.2429 79.5424 90.2434H79.0056C78.9105 90.2434 78.8193 90.2058 78.7521 90.1389C78.6848 90.072 78.647 89.9812 78.647 89.8865C78.6461 89.8354 78.6569 89.7848 78.6785 89.7384L79.8465 89.6987Z" fill="black"/>
<path opacity="0.1" d="M81.5098 89.8891C81.5093 89.9835 81.4713 90.074 81.4042 90.1408C81.3371 90.2076 81.2462 90.2454 81.1513 90.2459H80.6144C80.5489 90.2459 80.4846 90.2279 80.4285 90.1941C80.3725 90.1602 80.3269 90.1117 80.2966 90.0538C80.2663 89.9959 80.2526 89.9309 80.2569 89.8658C80.2611 89.8007 80.2833 89.738 80.3208 89.6845L81.4113 89.647C81.4748 89.7117 81.5102 89.7986 81.5098 89.8891Z" fill="black"/>
<path d="M84.7269 91.3115H74.3569V90.842C74.3568 90.6335 74.4381 90.4332 74.5837 90.2833C74.7292 90.1333 74.9277 90.0456 75.137 90.0386L83.454 89.7527C83.6192 89.7471 83.7839 89.7746 83.9383 89.8336C84.0926 89.8926 84.2334 89.982 84.3524 90.0962C84.4713 90.2105 84.566 90.3474 84.6307 90.4989C84.6954 90.6503 84.7288 90.8131 84.729 90.9776L84.7269 91.3115Z" fill="#D6D6E3"/>
<path d="M135.889 89.8743C135.877 90.6151 136.413 91.2224 137.078 91.2224H149.636V89.9202H139.179C138.729 89.9202 138.448 89.3776 138.674 88.9435L148.145 69.7752C148.211 69.6371 148.315 69.52 148.445 69.4368C148.574 69.3536 148.724 69.3075 148.878 69.3036H153.565V67.1123H147.654C147.548 67.1163 147.445 67.1489 147.356 67.2066C147.267 67.2643 147.195 67.345 147.148 67.44L136.292 88.3091C136.038 88.7931 135.901 89.3287 135.889 89.8743Z" fill="#535461"/>
<path d="M158.942 86.3969L159.114 86.6849L160.723 85.6164L155.746 47.5366H154.465C154.465 47.5366 154.413 47.7119 154.327 48.0458C153.467 51.3369 149.245 69.975 158.942 86.3969Z" fill="#535461"/>
<path opacity="0.1" d="M154.327 48.0458L158.94 86.3969L159.112 86.6849L160.721 85.6164L155.747 47.5366H154.465C154.465 47.5366 154.413 47.7182 154.327 48.0458Z" fill="black"/>
<path d="M157.459 47.1387L154.439 47.4985L159.16 86.7213L162.179 86.3614L157.459 47.1387Z" fill="#D6D6E3"/>
<path d="M172.523 89.8885C172.524 89.9829 172.562 90.0734 172.629 90.1402C172.696 90.207 172.787 90.2448 172.882 90.2453H173.419C173.514 90.2453 173.605 90.2077 173.672 90.1408C173.739 90.0739 173.777 89.9831 173.777 89.8885C173.779 89.8746 173.779 89.8606 173.777 89.8467C173.766 89.7606 173.725 89.6813 173.659 89.6237C173.594 89.566 173.51 89.534 173.423 89.5337H172.886C172.806 89.5345 172.729 89.5616 172.667 89.6107C172.604 89.6597 172.559 89.7281 172.54 89.805C172.531 89.832 172.525 89.86 172.523 89.8885Z" fill="#E3EDF9"/>
<path d="M170.914 89.8885C170.915 89.9829 170.953 90.0734 171.02 90.1402C171.087 90.207 171.178 90.2448 171.273 90.2453H171.809C171.857 90.2453 171.903 90.2361 171.947 90.2182C171.99 90.2002 172.03 90.1739 172.063 90.1408C172.096 90.1077 172.123 90.0683 172.141 90.025C172.159 89.9817 172.168 89.9353 172.168 89.8885C172.168 89.8552 172.163 89.8222 172.153 89.7904C172.138 89.7325 172.106 89.6799 172.063 89.638C172.03 89.6048 171.991 89.5784 171.948 89.5605C171.905 89.5426 171.858 89.5335 171.812 89.5337H171.264C171.195 89.5334 171.127 89.5529 171.069 89.5899C171.01 89.6269 170.964 89.6798 170.935 89.7424C170.918 89.7892 170.911 89.8389 170.914 89.8885Z" fill="#E3EDF9"/>
<path d="M169.484 89.8881C169.485 89.9826 169.523 90.073 169.59 90.1399C169.657 90.2067 169.748 90.2444 169.843 90.245H170.38C170.475 90.245 170.566 90.2074 170.633 90.1405C170.7 90.0735 170.738 89.9828 170.738 89.8881C170.739 89.837 170.728 89.7863 170.707 89.7399C170.678 89.6783 170.632 89.6261 170.574 89.5892C170.517 89.5523 170.45 89.5322 170.382 89.5313H169.845C169.798 89.531 169.751 89.54 169.707 89.5579C169.664 89.5757 169.624 89.602 169.591 89.6352C169.557 89.6684 169.531 89.7078 169.513 89.7512C169.495 89.7946 169.486 89.8412 169.486 89.8881H169.484Z" fill="#E3EDF9"/>
<path d="M167.874 89.8885C167.874 89.9829 167.912 90.0734 167.979 90.1402C168.047 90.207 168.137 90.2448 168.232 90.2453H168.769C168.835 90.2453 168.899 90.2273 168.955 90.1935C169.011 90.1596 169.057 90.1111 169.087 90.0532C169.117 89.9953 169.131 89.9303 169.127 89.8652C169.122 89.8001 169.1 89.7374 169.063 89.6839L169.021 89.638C168.988 89.6048 168.949 89.5784 168.906 89.5605C168.862 89.5426 168.816 89.5335 168.769 89.5337H168.232C168.183 89.5343 168.135 89.5448 168.09 89.5645C168.046 89.5842 168.006 89.6128 167.972 89.6485C167.909 89.7126 167.874 89.7987 167.874 89.8885Z" fill="#E3EDF9"/>
<path opacity="0.1" d="M172.534 89.8032C172.526 89.8312 172.523 89.8599 172.523 89.8888C172.524 89.9833 172.562 90.0737 172.629 90.1405C172.696 90.2073 172.787 90.2451 172.882 90.2457H173.419C173.514 90.2457 173.605 90.2081 173.672 90.1411C173.739 90.0742 173.777 89.9834 173.777 89.8888C173.779 89.8749 173.779 89.8609 173.777 89.847L172.534 89.8032Z" fill="black"/>
<path opacity="0.1" d="M170.944 89.7466C170.925 89.7908 170.915 89.8383 170.915 89.8864C170.915 89.9809 170.953 90.0713 171.02 90.1381C171.087 90.205 171.178 90.2427 171.273 90.2433H171.81C171.857 90.2433 171.904 90.234 171.947 90.2161C171.991 90.1982 172.03 90.1719 172.064 90.1388C172.097 90.1056 172.123 90.0663 172.141 90.023C172.159 89.9797 172.169 89.9333 172.169 89.8864C172.168 89.8532 172.163 89.8202 172.154 89.7883L170.944 89.7466Z" fill="black"/>
<path opacity="0.1" d="M169.537 89.6987C169.502 89.7551 169.483 89.8201 169.482 89.8865C169.483 89.981 169.521 90.0715 169.588 90.1383C169.655 90.2051 169.746 90.2429 169.841 90.2434H170.378C170.473 90.2434 170.564 90.2058 170.631 90.1389C170.699 90.072 170.736 89.9812 170.736 89.8865C170.737 89.8354 170.727 89.7848 170.705 89.7384L169.537 89.6987Z" fill="black"/>
<path opacity="0.1" d="M167.874 89.8891C167.874 89.9835 167.912 90.074 167.979 90.1408C168.047 90.2076 168.137 90.2454 168.232 90.2459H168.769C168.835 90.2459 168.899 90.2279 168.955 90.1941C169.011 90.1602 169.057 90.1117 169.087 90.0538C169.117 89.9959 169.131 89.9309 169.127 89.8658C169.122 89.8007 169.1 89.738 169.063 89.6845L167.972 89.647C167.909 89.7117 167.873 89.7986 167.874 89.8891Z" fill="black"/>
<path d="M164.657 91.3115H175.027V90.842C175.027 90.6335 174.946 90.4332 174.8 90.2833C174.655 90.1333 174.456 90.0456 174.247 90.0386L165.93 89.7527C165.765 89.7471 165.6 89.7746 165.446 89.8336C165.291 89.8926 165.151 89.982 165.032 90.0962C164.913 90.2105 164.818 90.3474 164.753 90.4989C164.689 90.6503 164.655 90.8131 164.655 90.9776L164.657 91.3115Z" fill="#D6D6E3"/>
<path d="M208.062 96.9694C212.9 88.8034 211.146 72.3314 211.341 72.0163C211.515 71.7387 210.849 63.9817 206.403 62.0868C205.6 60.5028 204.809 58.7185 204.809 58.7185C204.731 58.7912 204.645 58.8549 204.553 58.9084C204.518 58.8138 204.484 58.7178 204.45 58.6204C204.394 58.4555 204.341 58.2865 204.289 58.1175C204.413 58.157 204.54 58.1891 204.669 58.2135C205.008 58.2958 205.364 58.2643 205.683 58.1237C205.792 58.0656 205.891 57.9902 205.975 57.9004C206.325 57.6688 206.518 57.2514 206.682 56.857L207.976 53.7725C208.559 52.3806 209.146 50.9802 209.456 49.5048C209.918 47.2844 209.739 44.9794 208.94 42.8559C208.634 42.0462 208.21 41.2365 207.491 40.7523C206.05 39.7798 204.046 40.4518 202.399 39.8821C201.858 39.6942 201.37 39.377 200.829 39.185C199.661 38.7676 198.342 38.9909 197.218 39.5106C196.094 40.0302 195.183 40.8566 194.2 41.5975C193.716 41.9669 192.942 42.3488 192.371 42.8496C191.818 43.2795 191.392 43.7992 191.474 44.4837C191.566 45.2663 192.394 45.7358 193.166 45.9195C193.294 45.9487 193.426 45.9717 193.556 45.9946C192.64 46.918 191.98 48.0618 191.64 49.3144C191.301 50.5671 191.293 51.886 191.617 53.1426C191.942 54.3993 192.588 55.5509 193.492 56.4852C194.397 57.4196 195.529 58.1049 196.779 58.4743C197.173 59.2097 197.513 59.9719 197.799 60.7553C197.836 60.8624 197.873 60.9703 197.91 61.0788C196.639 61.4377 195.645 61.7362 195.446 61.901C194.844 62.3977 196.104 66.7468 196.104 66.7468C195.783 67.1517 195.456 67.6129 195.125 68.1075C192.612 71.9055 191.021 76.2329 190.478 80.7479C190.268 82.3986 189.995 84.0869 189.649 85.6918L174.62 82.6929L174.588 83.0623L174.23 82.9746L173.101 82.6971L173.057 82.9496L172.885 82.8682C170.09 81.5639 165.38 79.8985 162.19 81.616C158.824 83.4191 166.089 85.8149 170.75 87.09C169.205 87.1651 167.727 87.5345 166.556 88.3985C163.176 90.9195 172.736 92.2322 177.251 92.6975L177.434 92.7163V92.8123L178.998 92.9563L179.365 92.9897L179.401 93.5448C179.401 93.5448 181.641 93.91 184.633 94.3525C181.217 95.2018 176.996 95.7903 174.064 96.1347C170.956 96.4978 168.31 98.6515 167.475 101.655C167.205 102.516 167.179 103.434 167.399 104.309C168.272 107.341 167.206 129.648 166.965 134.452L161.44 137.618C161.44 137.618 152.842 138.662 158.569 140.667C159.085 140.843 159.612 140.982 160.148 141.085C159.393 141.569 159.458 142.201 161.683 142.977C167.414 144.977 180.737 142.89 180.737 142.89C180.737 142.89 180.445 140.54 179.971 138.587L180.118 138.599C180.118 138.599 178.742 133.505 180.829 130.936C182.916 128.367 180.479 108.815 180.479 108.815C180.479 108.815 184.132 107.31 195.051 107.212C203.859 109.462 208.152 101.408 208.091 97.2449C208.072 97.151 208.068 97.055 208.062 96.9694Z" fill="url(#paint0_linear)"/>
<path d="M175.511 84.3146L174.578 88.071C174.578 88.071 173.739 87.8832 172.481 87.5618C168.219 86.4641 159.231 83.8283 162.834 81.8938C165.94 80.2243 170.514 81.8479 173.229 83.1146C174.223 83.58 174.97 83.9974 175.303 84.1935C175.444 84.2729 175.511 84.3146 175.511 84.3146Z" fill="#F8B9BF"/>
<path opacity="0.1" d="M175.249 85.3743L174.578 88.0873C174.578 88.0873 173.739 87.8994 172.481 87.5781L173.238 83.1309C174.232 83.5962 174.978 84.0136 175.312 84.2098L175.249 85.3743Z" fill="black"/>
<path d="M175.251 88.3441L172.646 87.7034L173.456 82.9536L175.538 83.4649L175.251 88.3441Z" fill="#D9DFE8"/>
<path opacity="0.1" d="M175.251 88.3439L174.127 88.0684L174.55 83.2227L175.538 83.4647L175.251 88.3439Z" fill="black"/>
<path d="M200.382 68.6713C200.382 68.6713 195.381 65.7956 193.158 74.0451C190.935 82.2946 190.725 86.0949 190.725 86.0949L174.93 82.952L174.429 88.6931C174.429 88.6931 191.316 94.1191 193.441 93.7246C195.565 93.3302 202.458 81.8293 202.458 81.8293C202.458 81.8293 208.724 72.9161 200.382 68.6713Z" fill="#2196F3"/>
<g opacity="0.1">
<path opacity="0.1" d="M175.511 84.3146L174.578 88.071C174.578 88.071 173.739 87.8832 172.481 87.5618C168.219 86.4641 159.231 83.8283 162.834 81.8938C165.94 80.2243 170.514 81.8479 173.229 83.1146C174.223 83.58 174.97 83.9974 175.303 84.1936C175.444 84.2729 175.511 84.3146 175.511 84.3146Z" fill="black"/>
<path opacity="0.1" d="M175.249 85.3748L174.578 88.0878C174.578 88.0878 173.739 87.8999 172.481 87.5785L173.238 83.1313C174.232 83.5967 174.978 84.0141 175.312 84.2103L175.249 85.3748Z" fill="black"/>
<path opacity="0.1" d="M175.251 88.3451L172.646 87.7044L173.456 82.9546L175.538 83.4659L175.251 88.3451Z" fill="black"/>
<path opacity="0.1" d="M175.251 88.3449L174.127 88.0694L174.551 83.2236L175.538 83.4657L175.251 88.3449Z" fill="black"/>
<path opacity="0.1" d="M200.382 68.8798C200.382 68.8798 195.381 66.0041 193.158 74.2536C190.935 82.5031 190.725 86.3034 190.725 86.3034L174.93 83.1605L174.429 88.9016C174.429 88.9016 191.317 94.3276 193.441 93.9331C195.565 93.5387 202.458 82.0378 202.458 82.0378C202.458 82.0378 208.725 73.1246 200.382 68.8798Z" fill="black"/>
</g>
<path d="M168.57 132.593L162.121 136.289C162.121 136.289 153.766 137.307 159.332 139.248C164.898 141.189 177.837 139.162 177.837 139.162C177.837 139.162 177.117 133.378 176.115 132.57C175.112 131.762 168.57 132.593 168.57 132.593Z" fill="#68739D"/>
<path d="M193.704 91.1257C193.704 91.1257 190.495 92.7953 184.795 94.2373C181.455 95.0721 177.273 95.6648 174.383 96.0029C172.904 96.1631 171.506 96.757 170.366 97.7093C169.227 98.6616 168.397 99.9294 167.983 101.352C167.719 102.191 167.694 103.087 167.91 103.939C168.86 107.243 167.442 134.097 167.442 134.097L177.235 134.999C177.235 134.999 175.899 130.051 177.927 127.557C179.955 125.063 177.588 106.081 177.588 106.081C177.588 106.081 181.136 104.62 191.739 104.524C201.561 107.028 205.609 96.3284 204.092 93.3295C202.576 90.3306 193.704 91.1257 193.704 91.1257Z" fill="#6394E2"/>
<g opacity="0.1">
<path opacity="0.1" d="M168.57 132.593L162.121 136.289C162.121 136.289 153.766 137.307 159.332 139.248C164.898 141.189 177.837 139.162 177.837 139.162C177.837 139.162 177.117 133.378 176.115 132.57C175.112 131.762 168.57 132.593 168.57 132.593Z" fill="black"/>
<path opacity="0.1" d="M193.703 91.1257C193.703 91.1257 190.494 92.7953 184.794 94.2373C181.454 95.0721 177.272 95.6648 174.382 96.0029C172.903 96.1631 171.505 96.757 170.366 97.7093C169.226 98.6616 168.396 99.9294 167.982 101.352C167.718 102.191 167.693 103.087 167.909 103.939C168.859 107.243 167.441 134.097 167.441 134.097L177.234 134.999C177.234 134.999 175.899 130.051 177.927 127.557C179.954 125.063 177.587 106.081 177.587 106.081C177.587 106.081 181.135 104.62 191.738 104.524C201.561 107.028 205.608 96.3284 204.092 93.3295C202.576 90.3306 193.703 91.1257 193.703 91.1257Z" fill="black"/>
</g>
<path d="M171.594 134.836L165.145 138.532C165.145 138.532 156.795 139.542 162.356 141.491C167.918 143.44 180.861 141.406 180.861 141.406C180.861 141.406 180.141 135.621 179.139 134.813C178.137 134.005 171.594 134.836 171.594 134.836Z" fill="#68739D"/>
<path d="M194.752 106.768C184.149 106.864 180.601 108.324 180.601 108.324C180.601 108.324 182.968 127.315 180.94 129.801C178.913 132.286 180.248 137.243 180.248 137.243L170.455 136.341C170.455 136.341 170.472 136.024 170.499 135.456C170.734 130.79 171.768 109.128 170.919 106.183C170.704 105.333 170.73 104.441 170.992 103.604C171.404 102.18 172.233 100.91 173.372 99.955C174.511 99.0003 175.91 98.4043 177.39 98.2425C180.278 97.9065 184.459 97.3222 187.8 96.477L187.964 96.4352C193.563 95.0036 196.708 93.3654 196.708 93.3654C196.708 93.3654 205.581 92.5724 207.097 95.5713C207.311 96.0468 207.417 96.5634 207.408 97.0843C207.483 101.131 203.31 108.953 194.752 106.768Z" fill="#6394E2"/>
<path d="M179.982 88.9949L179.623 92.8557C179.623 92.8557 178.761 92.7952 177.48 92.6616C173.103 92.2087 163.819 90.9357 167.101 88.4877C169.924 86.3841 174.689 87.3024 177.564 88.1538C178.612 88.4669 179.418 88.7695 179.776 88.9135C179.908 88.9636 179.982 88.9949 179.982 88.9949Z" fill="#F8B9BF"/>
<path d="M206.03 63.7547C206.03 63.7547 204.717 64.7773 203.112 65.9C201.353 66.2965 199.31 66.6242 197.838 66.837C198.365 65.1675 198.048 63.2893 197.455 61.6427C196.809 59.9222 195.923 58.3007 194.823 56.8261L203.698 54.0693C203.001 55.8244 203.316 57.8258 203.907 59.5663C204.429 61.048 205.143 62.4559 206.03 63.7547Z" fill="#F8B9BF"/>
<path opacity="0.1" d="M179.882 90.0832L179.624 92.8567C179.624 92.8567 178.762 92.7961 177.48 92.6626L177.564 88.1528C178.613 88.4659 179.418 88.7685 179.777 88.9125L179.882 90.0832Z" fill="black"/>
<path d="M180.328 93.0194L177.656 92.7732L177.744 87.9565L179.881 88.1527L180.328 93.0194Z" fill="#D9DFE8"/>
<path opacity="0.1" d="M206.03 63.7545C206.03 63.7545 204.717 64.7771 203.113 65.8999C201.354 66.2964 199.311 66.624 197.839 66.8369C198.365 65.1674 198.049 63.2891 197.455 61.6426C199.623 61.0165 202.725 60.2068 203.91 59.5557C204.431 61.0409 205.143 62.4524 206.03 63.7545Z" fill="black"/>
<path d="M204.255 59.6597C204.255 59.6597 205.74 63.0133 206.675 64.5284C207.611 66.0435 195.808 67.4501 195.808 67.4501C195.808 67.4501 194.584 63.2283 195.169 62.7441C195.754 62.26 203.268 60.6405 204.255 59.6597Z" fill="#D9DFE8"/>
<path opacity="0.1" d="M207.425 97.0864C206.928 97.9579 206.31 98.7547 205.588 99.4529C200.374 104.382 191.829 99.2442 187.972 96.4352C193.572 95.0036 196.717 93.3654 196.717 93.3654C196.717 93.3654 205.59 92.5724 207.106 95.5713C207.323 96.0468 207.432 96.5641 207.425 97.0864Z" fill="black"/>
<path d="M205.621 99.0999C199.695 104.701 189.474 97.2843 186.718 95.0993C186.271 94.7445 186.022 94.5254 186.022 94.5254C187.11 93.5112 188.066 91.3616 188.823 88.7321C189.529 86.2164 190.039 83.6502 190.348 81.0565C190.876 76.6713 192.421 72.4682 194.861 68.7792C195.182 68.2992 195.49 67.8505 195.811 67.4582C198.048 64.6263 201.808 62.8273 201.808 62.8273C209.744 60.5192 210.811 72.233 210.599 72.5711C210.388 72.9092 212.51 92.5867 205.621 99.0999Z" fill="#2196F3"/>
<path opacity="0.1" d="M206.388 83.0867C206.388 83.0867 201.286 95.4829 199.246 96.1904C198.078 96.5932 191.839 95.8293 186.718 95.101C186.271 94.7462 186.022 94.5271 186.022 94.5271C187.11 93.5129 188.066 91.3634 188.823 88.7339L195.419 89.0469C195.419 89.0469 195.052 85.2612 196.021 76.7717C196.989 68.2822 202.36 70.3858 202.36 70.3858C211.245 73.3471 206.388 83.0867 206.388 83.0867Z" fill="black"/>
<path opacity="0.1" d="M180.328 93.0196L179.175 92.9132L178.868 88.061L179.881 88.1529L180.328 93.0196Z" fill="black"/>
<path d="M202.232 69.8399C202.232 69.8399 196.861 67.7384 195.892 76.2258C194.924 84.7133 195.291 88.501 195.291 88.501L179.2 87.7351L179.562 93.4867C179.562 93.4867 197.075 96.3478 199.116 95.6424C201.156 94.9371 206.258 82.5387 206.258 82.5387C206.258 82.5387 211.109 72.7991 202.232 69.8399Z" fill="#2196F3"/>
<path opacity="0.1" d="M202.593 57.2725C202.358 56.0037 203.69 56.0204 204.168 54.8267L195.293 57.5834C195.909 58.4065 196.459 59.2766 196.937 60.1858C197.397 60.3218 197.87 60.4127 198.348 60.4571C200.464 60.6574 201.125 58.5852 202.593 57.2725Z" fill="black"/>
<path d="M205.847 53.1023C206.219 49.09 203.253 45.5368 199.221 45.166C195.189 44.7952 191.619 47.7472 191.246 51.7595C190.874 55.7718 193.84 59.325 197.872 59.6958C201.904 60.0666 205.474 57.1146 205.847 53.1023Z" fill="#F8B9BF"/>
<path opacity="0.1" d="M191.312 45.8402C191.402 46.5998 192.208 47.0631 192.956 47.2343C193.705 47.4054 194.516 47.4137 195.173 47.8123C196.221 48.4551 196.504 49.8825 196.372 51.1096C196.299 51.8025 196.194 52.6519 196.765 53.0546C196.944 53.1638 197.144 53.2349 197.352 53.2633C197.947 53.3832 198.557 53.4044 199.159 53.3259C199.512 53.28 199.874 53.2007 200.208 53.2988C200.757 53.4574 201.082 54.0334 201.189 54.5906C201.296 55.1478 201.238 55.728 201.324 56.2893C201.443 56.9922 201.774 57.6425 202.273 58.1544C202.772 58.6663 203.415 59.0158 204.117 59.1567C204.446 59.2364 204.793 59.2056 205.102 59.0691C205.501 58.8604 205.704 58.4159 205.876 58.0006L207.135 55.0038C207.701 53.6536 208.271 52.2908 208.573 50.8592C209.022 48.703 208.848 46.4645 208.072 44.4023C207.774 43.6176 207.363 42.8309 206.665 42.3592C205.266 41.4139 203.309 42.0671 201.72 41.5245C201.194 41.3429 200.72 41.0341 200.195 40.8483C199.061 40.4456 197.779 40.6584 196.687 41.1655C195.594 41.6727 194.711 42.4719 193.751 43.2003C192.918 43.8451 191.155 44.5275 191.312 45.8402Z" fill="black"/>
<path d="M191.505 45.6801C191.595 46.4397 192.4 46.903 193.149 47.0741C193.898 47.2452 194.709 47.2536 195.366 47.6522C196.414 48.295 196.697 49.7224 196.565 50.9495C196.492 51.6424 196.387 52.4917 196.957 52.8945C197.136 53.0037 197.336 53.0748 197.545 53.1032C198.14 53.2231 198.75 53.2442 199.352 53.1658C199.705 53.1199 200.067 53.0406 200.401 53.1387C200.95 53.2973 201.275 53.8733 201.382 54.4305C201.489 54.9877 201.43 55.5678 201.516 56.1292C201.636 56.8321 201.967 57.4824 202.466 57.9943C202.965 58.5062 203.607 58.8557 204.31 58.9966C204.639 59.0763 204.985 59.0455 205.295 58.909C205.694 58.7003 205.897 58.2558 206.069 57.8405L207.327 54.8437C207.894 53.4935 208.464 52.1307 208.766 50.6991C209.214 48.5428 209.041 46.3043 208.265 44.2422C207.967 43.4575 207.556 42.6707 206.858 42.1991C205.459 41.2537 203.502 41.9069 201.913 41.3643C201.386 41.1828 200.912 40.8739 200.388 40.6882C199.254 40.2854 197.972 40.4983 196.88 41.0054C195.787 41.5125 194.904 42.3118 193.944 43.0401C193.113 43.685 191.35 44.3674 191.505 45.6801Z" fill="#B96B6B"/>
<path opacity="0.1" d="M197.579 74.5015C197.579 74.5015 194.779 85.3242 191.992 86.3259C189.205 87.3276 190.436 87.6114 190.436 87.6114" fill="black"/>
<path d="M197.711 114.149H194.668V134.052H197.711V114.149Z" fill="#D6D6E3"/>
<path opacity="0.1" d="M197.711 114.149H194.668V115.624H197.711V114.149Z" fill="black"/>
<path d="M188.58 114.045V114.462C188.58 114.591 188.605 114.718 188.655 114.837C188.704 114.955 188.777 115.063 188.868 115.154C188.959 115.245 189.068 115.317 189.187 115.366C189.306 115.416 189.434 115.441 189.563 115.441H202.813C202.942 115.441 203.07 115.416 203.189 115.366C203.308 115.317 203.417 115.245 203.508 115.154C203.599 115.063 203.672 114.955 203.721 114.837C203.771 114.718 203.796 114.591 203.796 114.462V114.045C203.796 113.916 203.771 113.789 203.721 113.67C203.672 113.551 203.599 113.443 203.508 113.353C203.417 113.262 203.308 113.19 203.189 113.14C203.07 113.091 202.942 113.066 202.813 113.066H189.563C189.434 113.066 189.306 113.091 189.187 113.14C189.068 113.19 188.959 113.262 188.868 113.353C188.777 113.443 188.704 113.551 188.655 113.67C188.605 113.789 188.58 113.916 188.58 114.045Z" fill="#D6D6E3"/>
<path opacity="0.1" d="M188.806 113.423H203.572C203.48 113.311 203.364 113.221 203.232 113.159C203.101 113.098 202.958 113.066 202.812 113.066H189.563C189.418 113.066 189.275 113.098 189.144 113.16C189.013 113.221 188.898 113.311 188.806 113.423Z" fill="black"/>
<path d="M207.537 132.969H184.845C184.208 132.969 183.692 133.483 183.692 134.117V134.201C183.692 134.834 184.208 135.348 184.845 135.348H207.537C208.174 135.348 208.691 134.834 208.691 134.201V134.117C208.691 133.483 208.174 132.969 207.537 132.969Z" fill="#D6D6E3"/>
<path d="M207.278 138.377C208.118 138.377 208.8 137.699 208.8 136.862C208.8 136.026 208.118 135.347 207.278 135.347C206.437 135.347 205.755 136.026 205.755 136.862C205.755 137.699 206.437 138.377 207.278 138.377Z" fill="#535461"/>
<path d="M185.103 138.377C185.943 138.377 186.625 137.699 186.625 136.862C186.625 136.026 185.943 135.347 185.103 135.347C184.262 135.347 183.58 136.026 183.58 136.862C183.58 137.699 184.262 138.377 185.103 138.377Z" fill="#535461"/>
<path d="M196.191 138.377C197.032 138.377 197.713 137.699 197.713 136.862C197.713 136.026 197.032 135.347 196.191 135.347C195.35 135.347 194.668 136.026 194.668 136.862C194.668 137.699 195.35 138.377 196.191 138.377Z" fill="#535461"/>
<path d="M215.087 89.7026H194.739C193.754 89.7026 192.956 90.4968 192.956 91.4765V91.6059C192.956 92.5856 193.754 93.3798 194.739 93.3798H215.087C216.071 93.3798 216.869 92.5856 216.869 91.6059V91.4765C216.869 90.4968 216.071 89.7026 215.087 89.7026Z" fill="#D6D6E3"/>
<path opacity="0.1" d="M197.711 132.969C197.711 132.969 196.515 134.144 194.668 132.969H197.711Z" fill="black"/>
<path opacity="0.1" d="M216.869 91.5786V91.8687C216.869 92.2699 216.709 92.6548 216.424 92.9385C216.139 93.2222 215.752 93.3816 215.349 93.3816H194.477C194.073 93.3816 193.687 93.2222 193.402 92.9385C193.116 92.6548 192.956 92.2699 192.956 91.8687V91.5786H216.869Z" fill="black"/>
<path d="M177.084 94.96H172.972V147.103H177.084V94.96Z" fill="#D6D6E3"/>
<path opacity="0.1" d="M177.084 94.96H172.972V98.3408H177.084V94.96Z" fill="black"/>
<path d="M52.3922 115.572H49.3494V135.475H52.3922V115.572Z" fill="#D6D6E3"/>
<path opacity="0.1" d="M52.3922 115.572H49.3494V117.048H52.3922V115.572Z" fill="black"/>
<path d="M58.4774 115.47V115.888C58.4774 116.147 58.3738 116.396 58.1893 116.58C58.0049 116.763 57.7547 116.867 57.4939 116.867H44.2445C43.9837 116.867 43.7335 116.763 43.5491 116.58C43.3646 116.396 43.261 116.147 43.261 115.888V115.47C43.2632 115.212 43.3678 114.965 43.552 114.784C43.7362 114.602 43.9851 114.5 44.2445 114.5H57.4939C57.623 114.5 57.7509 114.525 57.8702 114.575C57.9896 114.624 58.098 114.696 58.1893 114.787C58.2806 114.878 58.3531 114.985 58.4025 115.104C58.4519 115.223 58.4774 115.35 58.4774 115.479V115.47Z" fill="#D6D6E3"/>
<path opacity="0.1" d="M58.2534 114.846H43.4858C43.5789 114.736 43.6952 114.648 43.8264 114.588C43.9577 114.528 44.1006 114.498 44.245 114.5H57.4943C57.6387 114.498 57.7816 114.528 57.9128 114.588C58.0441 114.648 58.1604 114.736 58.2534 114.846Z" fill="black"/>
<path d="M62.2171 134.392H39.5247C38.8877 134.392 38.3713 134.905 38.3713 135.539V135.623C38.3713 136.257 38.8877 136.771 39.5247 136.771H62.2171C62.8541 136.771 63.3705 136.257 63.3705 135.623V135.539C63.3705 134.905 62.8541 134.392 62.2171 134.392Z" fill="#D6D6E3"/>
<path d="M39.7849 139.801C40.6258 139.801 41.3074 139.123 41.3074 138.286C41.3074 137.449 40.6258 136.771 39.7849 136.771C38.9441 136.771 38.2625 137.449 38.2625 138.286C38.2625 139.123 38.9441 139.801 39.7849 139.801Z" fill="#535461"/>
<path d="M61.9573 139.801C62.7981 139.801 63.4798 139.123 63.4798 138.286C63.4798 137.449 62.7981 136.771 61.9573 136.771C61.1165 136.771 60.4348 137.449 60.4348 138.286C60.4348 139.123 61.1165 139.801 61.9573 139.801Z" fill="#535461"/>
<path d="M50.8692 139.801C51.71 139.801 52.3917 139.123 52.3917 138.286C52.3917 137.449 51.71 136.771 50.8692 136.771C50.0283 136.771 49.3467 137.449 49.3467 138.286C49.3467 139.123 50.0283 139.801 50.8692 139.801Z" fill="#535461"/>
<path opacity="0.1" d="M49.3494 134.392C49.3494 134.392 50.5447 135.567 52.3922 134.392H49.3494Z" fill="black"/>
<path d="M126.977 74.4767C126.977 74.4767 123.563 68.3015 124.811 62.934C125.348 60.686 125.139 58.3251 124.213 56.2058C123.769 55.2034 123.233 54.2436 122.613 53.3384" stroke="#535461" stroke-width="0.6" stroke-miterlimit="10"/>
<path d="M123.369 49.9491C123.547 50.7588 122.593 53.428 122.593 53.428C122.593 53.428 120.603 51.4037 120.423 50.5939C120.363 50.396 120.344 50.1878 120.368 49.9824C120.393 49.777 120.459 49.5789 120.564 49.4003C120.669 49.2218 120.81 49.0669 120.978 48.9451C121.146 48.8234 121.338 48.7376 121.541 48.693C121.744 48.6484 121.954 48.6461 122.158 48.6861C122.361 48.7261 122.555 48.8077 122.726 48.9256C122.896 49.0436 123.041 49.1954 123.15 49.3715C123.259 49.5476 123.33 49.7443 123.359 49.9491H123.369Z" fill="#2196F3"/>
<path d="M126.794 53.8999C126.502 54.6762 124.244 56.4042 124.244 56.4042C124.244 56.4042 123.678 53.6286 123.971 52.8564C124.034 52.6641 124.135 52.4865 124.269 52.3342C124.403 52.1818 124.566 52.0579 124.749 51.9699C124.932 51.8819 125.13 51.8316 125.333 51.822C125.536 51.8124 125.739 51.8437 125.93 51.9141C126.12 51.9845 126.294 52.0924 126.442 52.2315C126.589 52.3705 126.707 52.5378 126.788 52.7233C126.869 52.9087 126.911 53.1086 126.913 53.3108C126.914 53.513 126.874 53.7133 126.796 53.8999H126.794Z" fill="#2196F3"/>
<path d="M128.379 61.5843C127.733 62.1081 124.909 62.4608 124.909 62.4608C124.909 62.4608 125.829 59.7812 126.475 59.2573C126.628 59.1309 126.805 59.0359 126.996 58.9779C127.186 58.9199 127.386 58.8999 127.584 58.9193C127.783 58.9386 127.975 58.9967 128.15 59.0904C128.326 59.1841 128.481 59.3115 128.607 59.4651C128.732 59.6187 128.826 59.7956 128.883 59.9856C128.94 60.1755 128.958 60.3748 128.937 60.5718C128.916 60.7688 128.855 60.9597 128.76 61.1335C128.664 61.3073 128.535 61.4605 128.379 61.5843Z" fill="#2196F3"/>
<path d="M128.264 67.6647C127.717 68.2907 124.993 69.113 124.993 69.113C124.993 69.113 125.444 66.3165 125.991 65.6925C126.119 65.5372 126.277 65.409 126.456 65.3156C126.635 65.2222 126.83 65.1654 127.032 65.1487C127.233 65.132 127.435 65.1557 127.627 65.2184C127.819 65.281 127.996 65.3814 128.148 65.5135C128.3 65.6455 128.424 65.8067 128.513 65.9873C128.601 66.168 128.652 66.3644 128.663 66.5651C128.673 66.7657 128.643 66.9664 128.574 67.1553C128.506 67.3442 128.4 67.5174 128.262 67.6647H128.264Z" fill="#2196F3"/>
<path d="M121.187 57.2325C121.896 57.6687 124.741 57.6499 124.741 57.6499C124.741 57.6499 123.483 55.1102 122.774 54.674C122.606 54.5639 122.417 54.4884 122.219 54.4521C122.021 54.4158 121.817 54.4193 121.621 54.4625C121.424 54.5057 121.238 54.5877 121.074 54.7037C120.909 54.8196 120.77 54.9671 120.664 55.1376C120.558 55.308 120.487 55.4978 120.456 55.6959C120.425 55.8939 120.434 56.0962 120.483 56.2907C120.531 56.4852 120.619 56.668 120.74 56.8283C120.861 56.9887 121.013 57.1233 121.187 57.2242V57.2325Z" fill="#2196F3"/>
<path d="M121.144 64.3489C121.952 64.5576 124.663 63.6978 124.663 63.6978C124.663 63.6978 122.698 61.6485 121.891 61.444C121.51 61.3634 121.113 61.4324 120.782 61.6367C120.452 61.841 120.213 62.1646 120.117 62.5398C120.02 62.9151 120.073 63.313 120.265 63.6502C120.456 63.9873 120.772 64.2377 121.144 64.3489Z" fill="#2196F3"/>
<path d="M122.052 71.2691C122.811 71.6071 125.632 71.219 125.632 71.219C125.632 71.219 124.042 68.8691 123.283 68.5311C122.918 68.3686 122.503 68.3572 122.129 68.4992C121.756 68.6413 121.454 68.9253 121.291 69.2886C121.128 69.652 121.116 70.065 121.259 70.4368C121.402 70.8086 121.687 71.1087 122.052 71.2711V71.2691Z" fill="#2196F3"/>
<path d="M123.369 49.9491C123.547 50.7588 122.593 53.428 122.593 53.428C122.593 53.428 120.603 51.4037 120.423 50.5939C120.363 50.396 120.344 50.1878 120.368 49.9824C120.393 49.777 120.459 49.5789 120.564 49.4003C120.669 49.2218 120.81 49.0669 120.978 48.9451C121.146 48.8234 121.338 48.7376 121.541 48.693C121.744 48.6484 121.954 48.6461 122.158 48.6861C122.361 48.7261 122.555 48.8077 122.726 48.9256C122.896 49.0436 123.041 49.1954 123.15 49.3715C123.259 49.5476 123.33 49.7443 123.359 49.9491H123.369Z" fill="#2196F3"/>
<path d="M126.794 53.8999C126.502 54.6762 124.244 56.4042 124.244 56.4042C124.244 56.4042 123.678 53.6286 123.971 52.8564C124.034 52.6641 124.135 52.4865 124.269 52.3342C124.403 52.1818 124.566 52.0579 124.749 51.9699C124.932 51.8819 125.13 51.8316 125.333 51.822C125.536 51.8124 125.739 51.8437 125.93 51.9141C126.12 51.9845 126.294 52.0924 126.442 52.2315C126.589 52.3705 126.707 52.5378 126.788 52.7233C126.869 52.9087 126.911 53.1086 126.913 53.3108C126.914 53.513 126.874 53.7133 126.796 53.8999H126.794Z" fill="#2196F3"/>
<path d="M128.379 61.5843C127.733 62.1081 124.909 62.4608 124.909 62.4608C124.909 62.4608 125.829 59.7812 126.475 59.2573C126.628 59.1309 126.805 59.0359 126.996 58.9779C127.186 58.9199 127.386 58.8999 127.584 58.9193C127.783 58.9386 127.975 58.9967 128.15 59.0904C128.326 59.1841 128.481 59.3115 128.607 59.4651C128.732 59.6187 128.826 59.7956 128.883 59.9856C128.94 60.1755 128.958 60.3748 128.937 60.5718C128.916 60.7688 128.855 60.9597 128.76 61.1335C128.664 61.3073 128.535 61.4605 128.379 61.5843Z" fill="#2196F3"/>
<path d="M128.264 67.6647C127.717 68.2907 124.993 69.113 124.993 69.113C124.993 69.113 125.444 66.3165 125.991 65.6925C126.119 65.5372 126.277 65.409 126.456 65.3156C126.635 65.2222 126.83 65.1654 127.032 65.1487C127.233 65.132 127.435 65.1557 127.627 65.2184C127.819 65.281 127.996 65.3814 128.148 65.5135C128.3 65.6455 128.424 65.8067 128.513 65.9873C128.601 66.168 128.652 66.3644 128.663 66.5651C128.673 66.7657 128.643 66.9664 128.574 67.1553C128.506 67.3442 128.4 67.5174 128.262 67.6647H128.264Z" fill="#2196F3"/>
<path d="M121.187 57.2325C121.896 57.6687 124.741 57.6499 124.741 57.6499C124.741 57.6499 123.483 55.1102 122.774 54.674C122.606 54.5639 122.417 54.4884 122.219 54.4521C122.021 54.4158 121.817 54.4193 121.621 54.4625C121.424 54.5057 121.238 54.5877 121.074 54.7037C120.909 54.8196 120.77 54.9671 120.664 55.1376C120.558 55.308 120.487 55.4978 120.456 55.6959C120.425 55.8939 120.434 56.0962 120.483 56.2907C120.531 56.4852 120.619 56.668 120.74 56.8283C120.861 56.9887 121.013 57.1233 121.187 57.2242V57.2325Z" fill="#2196F3"/>
<path d="M121.144 64.3489C121.952 64.5576 124.663 63.6978 124.663 63.6978C124.663 63.6978 122.698 61.6485 121.891 61.444C121.51 61.3634 121.113 61.4324 120.782 61.6367C120.452 61.841 120.213 62.1646 120.117 62.5398C120.02 62.9151 120.073 63.313 120.265 63.6502C120.456 63.9873 120.772 64.2377 121.144 64.3489Z" fill="#2196F3"/>
<path d="M122.052 71.2691C122.811 71.6071 125.632 71.219 125.632 71.219C125.632 71.219 124.042 68.8691 123.283 68.5311C122.918 68.3686 122.503 68.3572 122.129 68.4992C121.756 68.6413 121.454 68.9253 121.291 69.2886C121.128 69.652 121.116 70.065 121.259 70.4368C121.402 70.8086 121.687 71.1087 122.052 71.2711V71.2691Z" fill="#2196F3"/>
<path d="M125.589 91.6034C125.097 91.6035 124.611 91.5034 124.161 91.3094C123.71 91.1153 123.304 90.8314 122.968 90.4751C122.631 90.1187 122.372 89.6976 122.206 89.2377C122.039 88.7778 121.97 88.2889 122.001 87.8011L123.005 71.9614H128.172L129.177 87.8011C129.208 88.2889 129.138 88.7778 128.971 89.2377C128.805 89.6976 128.546 90.1187 128.21 90.4751C127.873 90.8314 127.467 91.1153 127.017 91.3094C126.566 91.5034 126.08 91.6035 125.589 91.6034Z" fill="#2196F3"/>
<path opacity="0.1" d="M20.9671 13.7354H18.0312V25.8394H20.9671V13.7354Z" fill="#2196F3"/>
<path opacity="0.1" d="M24.7421 13.7354H21.8062V25.8394H24.7421V13.7354Z" fill="#2196F3"/>
<path opacity="0.1" d="M28.5167 13.7354H25.5808V25.8394H28.5167V13.7354Z" fill="#2196F3"/>
<path opacity="0.1" d="M32.2914 13.7354H29.3555V25.8394H32.2914V13.7354Z" fill="#2196F3"/>
<path opacity="0.1" d="M39.8409 13.7354H36.905V25.8394H39.8409V13.7354Z" fill="#2196F3"/>
<path opacity="0.1" d="M43.6156 13.7354H40.6797V25.8394H43.6156V13.7354Z" fill="#2196F3"/>
<path opacity="0.1" d="M20.9671 16.0308H18.0312V16.6568H20.9671V16.0308Z" fill="#2196F3"/>
<path opacity="0.1" d="M20.9671 23.5439H18.0312V24.17H20.9671V23.5439Z" fill="#2196F3"/>
<path opacity="0.1" d="M24.7421 16.0308H21.8062V16.6568H24.7421V16.0308Z" fill="#2196F3"/>
<path opacity="0.1" d="M24.7421 23.5439H21.8062V24.17H24.7421V23.5439Z" fill="#2196F3"/>
<path opacity="0.1" d="M28.5167 16.0308H25.5808V16.6568H28.5167V16.0308Z" fill="#2196F3"/>
<path opacity="0.1" d="M28.5167 23.5439H25.5808V24.17H28.5167V23.5439Z" fill="#2196F3"/>
<path opacity="0.1" d="M32.2914 16.0308H29.3555V16.6568H32.2914V16.0308Z" fill="#2196F3"/>
<path opacity="0.1" d="M32.2914 23.5439H29.3555V24.17H32.2914V23.5439Z" fill="#2196F3"/>
<path opacity="0.1" d="M36.0663 16.0308H33.1304V16.6568H36.0663V16.0308Z" fill="#2196F3"/>
<path opacity="0.1" d="M36.0663 23.5439H33.1304V24.17H36.0663V23.5439Z" fill="#2196F3"/>
<path opacity="0.1" d="M39.8409 16.0308H36.905V16.6568H39.8409V16.0308Z" fill="#2196F3"/>
<path opacity="0.1" d="M39.8409 23.5439H36.905V24.17H39.8409V23.5439Z" fill="#2196F3"/>
<path opacity="0.1" d="M43.6156 16.0308H40.6797V16.6568H43.6156V16.0308Z" fill="#2196F3"/>
<path opacity="0.1" d="M43.6156 23.5439H40.6797V24.17H43.6156V23.5439Z" fill="#2196F3"/>
<path opacity="0.1" d="M36.0663 13.7354H33.1304V25.8394H36.0663V13.7354Z" fill="#2196F3"/>
<path opacity="0.1" d="M46.3764 13.6794L43.7122 14.9067L48.8217 25.891L51.4859 24.6636L46.3764 13.6794Z" fill="#2196F3"/>
<path opacity="0.1" d="M47.3469 15.7653L44.6826 16.9927L44.9469 17.5608L47.6112 16.3335L47.3469 15.7653Z" fill="#2196F3"/>
<path opacity="0.1" d="M50.5161 22.5817L47.8518 23.8091L48.1161 24.3772L50.7804 23.1499L50.5161 22.5817Z" fill="#2196F3"/>
<path d="M82.1051 138.542L76.7764 135.159C76.7492 130.395 76.6737 108.276 77.6698 105.316C77.9267 104.46 77.9412 103.549 77.7117 102.685C77.0197 99.6777 74.4948 97.4322 71.4352 96.9376C68.5496 96.4701 64.3974 95.7042 61.0547 94.715C64.0346 94.4082 66.268 94.1432 66.268 94.1432L66.3267 93.5943L68.2455 93.5025V93.4211L68.428 93.4107C72.9094 93.1456 82.4259 92.2629 79.1923 89.6209C78.0829 88.7151 76.6359 88.2873 75.1093 88.1433C79.7773 87.0832 87.073 85.0297 83.8205 83.0993C80.7294 81.267 75.9963 82.7069 73.1716 83.8777L72.9975 83.9507L72.9661 83.6982L71.8378 83.9236L71.4792 83.9945L71.4624 83.6273L55.6317 86.0606C55.5076 84.2555 55.292 82.4578 54.9858 80.6743C55.3402 78.3244 56.9885 74.8977 56.4076 73.0592C55.7323 70.9242 52.96 70.2251 51.794 68.2968C51.4878 67.7939 51.1838 67.3222 50.886 66.909C50.2343 66.0276 49.4851 65.2219 48.6526 64.507C48.703 63.2671 48.9816 62.0469 49.4747 60.9071C49.7907 60.1446 50.1607 59.4054 50.5819 58.695C52.4271 58.2395 54.0282 57.1005 55.0586 55.5105C56.0889 53.9206 56.4709 51.9993 56.1266 50.1386C57.129 50.5665 58.3474 50.6103 58.9744 49.7755L58.6766 49.6607C58.706 49.6294 58.7353 49.5981 58.7605 49.5627C58.1502 49.331 57.5022 49.0681 57.0241 48.6465C56.903 48.5112 56.8008 48.3603 56.72 48.1978C56.4306 47.6135 56.4642 46.9123 56.1874 46.3196C56.0571 46.0497 55.8722 45.8096 55.6442 45.6142C55.1586 45.1201 54.5443 44.7703 53.8701 44.6042C53.1131 44.385 52.3162 44.2744 51.5906 43.9781C50.6017 42.8354 49.2963 42.0082 47.8375 41.5999C46.3788 41.1916 44.8314 41.2203 43.389 41.6825L43.1268 41.7722C43.3089 40.8988 43.1391 39.9891 42.6539 39.2389C42.1688 38.4888 41.4071 37.9582 40.5328 37.7612C39.6586 37.5643 38.7415 37.7168 37.9791 38.1859C37.2166 38.6551 36.6697 39.4033 36.456 40.2697C36.5225 39.5091 36.8446 38.793 37.3704 38.237C37.3158 38.2829 37.2592 38.3267 37.2068 38.3747C36.8793 38.6811 36.6157 39.0487 36.431 39.4565C36.2463 39.8642 36.1441 40.3042 36.1303 40.7513C36.1165 41.1984 36.1913 41.6438 36.3504 42.0621C36.5096 42.4804 36.75 42.8634 37.0579 43.1892L37.1187 43.2477C37.3608 43.5425 37.6507 43.795 37.9764 43.9948C37.377 43.7841 36.8484 43.4115 36.4499 42.9187C36.0513 42.4259 35.7986 41.8323 35.72 41.2046C35.72 41.2755 35.72 41.3465 35.72 41.4133C35.7461 41.8617 35.8612 42.3006 36.0585 42.7047C36.2558 43.1087 36.5315 43.4699 36.8697 43.7675C37.2079 44.065 37.6019 44.2931 38.029 44.4385C38.4561 44.5838 38.9079 44.6437 39.3584 44.6146L39.4528 44.6042L39.4024 44.673C38.4272 46.1004 37.9649 47.8138 38.0905 49.5353C38.2161 51.2569 38.9223 52.8858 40.0945 54.158C40.2337 54.4753 40.4188 54.7706 40.6439 55.0345C40.723 55.1246 40.8078 55.2097 40.8976 55.2891C41.472 55.8922 42.2574 56.2523 43.0912 56.295C43.231 56.4606 43.3799 56.6199 43.5379 56.7729C43.3996 57.3584 43.2188 57.9331 42.9968 58.4925C42.5499 59.6066 41.9936 60.674 41.3359 61.6792C36.8063 62.9606 36.4078 70.6154 36.5714 70.9055C36.7664 71.2519 35.8961 83.2725 39.2514 97.7932C39.113 101.944 41.5456 108.808 50.1814 106.999C60.9813 107.572 64.5232 109.219 64.5232 109.219C64.5232 109.219 63.4978 127.911 64.9615 130.633C65.8779 132.338 65.2279 134.842 64.5421 136.61C64.2879 137.047 64.0853 137.512 63.9382 137.995C63.7285 138.436 63.5754 138.703 63.5754 138.703H63.7222C63.1685 140.617 62.7764 142.927 62.7764 142.927C62.7764 142.927 75.8684 145.571 81.627 143.841C83.8624 143.169 83.9547 142.547 83.2291 142.034C83.7636 141.955 84.2919 141.84 84.8103 141.689C90.5731 139.959 82.1051 138.542 82.1051 138.542Z" fill="url(#paint1_linear)"/>
<path d="M53.6192 49.8058C53.6192 51.2917 53.1764 52.7443 52.3469 53.9798C51.5173 55.2153 50.3383 56.1782 48.9588 56.7468C47.5793 57.3155 46.0613 57.4642 44.5969 57.1744C43.1324 56.8845 41.7873 56.1689 40.7315 55.1182C39.6756 54.0676 38.9566 52.7289 38.6653 51.2715C38.374 49.8142 38.5235 48.3036 39.0949 46.9308C39.6663 45.558 40.634 44.3846 41.8755 43.5591C43.117 42.7336 44.5766 42.293 46.0697 42.293C47.0611 42.293 48.0428 42.4873 48.9588 42.8649C49.8747 43.2424 50.707 43.7958 51.408 44.4934C52.109 45.1911 52.6651 46.0193 53.0445 46.9308C53.4239 47.8423 53.6192 48.8192 53.6192 49.8058Z" fill="#FA595F"/>
<path d="M70.6238 85.1017L71.3892 88.9041C71.3892 88.9041 72.2406 88.7517 73.501 88.4867C77.8062 87.5789 86.9033 85.3375 83.3803 83.2465C80.35 81.4496 75.7092 82.8625 72.941 84.0103C71.9261 84.4276 71.1627 84.8158 70.8209 84.9974C70.693 85.0621 70.6238 85.1017 70.6238 85.1017Z" fill="#F8B9BF"/>
<path opacity="0.1" d="M70.8397 86.1734L71.3891 88.9031C71.3891 88.9031 72.2405 88.7507 73.5008 88.4857L72.9409 84.0093C71.926 84.4267 71.1626 84.8148 70.8208 84.9964L70.8397 86.1734Z" fill="black"/>
<path d="M70.7075 89.1399L73.3372 88.6161L72.7416 83.835L70.6362 84.2544L70.7075 89.1399Z" fill="#D9DFE8"/>
<path opacity="0.1" d="M70.7075 89.1394L71.8421 88.9119L71.6345 84.0557L70.6362 84.2539L70.7075 89.1394Z" fill="black"/>
<path d="M46.4703 68.3786C46.4703 68.3786 51.5892 65.724 53.4493 74.0654C55.3094 82.4068 55.3367 86.2092 55.3367 86.2092L71.2577 83.7612L71.5051 89.519C71.5051 89.519 54.393 94.1999 52.2896 93.7116C50.1863 93.2233 43.8007 81.4301 43.8007 81.4301C43.8007 81.4301 37.9498 72.2582 46.4703 68.3786Z" fill="#2196F3"/>
<g opacity="0.1">
<path opacity="0.1" d="M70.6248 85.1007L71.3902 88.9031C71.3902 88.9031 72.2416 88.7507 73.5019 88.4857C77.8072 87.5779 86.9044 85.3366 83.3813 83.2455C80.351 81.4486 75.7102 82.8615 72.942 84.0093C71.927 84.4267 71.1637 84.8148 70.8219 84.9964C70.694 85.0611 70.6248 85.1007 70.6248 85.1007Z" fill="black"/>
<path opacity="0.1" d="M70.8399 86.1734L71.3893 88.9031C71.3893 88.9031 72.2408 88.7507 73.5011 88.4857L72.9412 84.0093C71.9262 84.4267 71.1629 84.8148 70.821 84.9964L70.8399 86.1734Z" fill="black"/>
<path opacity="0.1" d="M70.7088 89.1384L73.3385 88.6146L72.7429 83.8335L70.6375 84.253L70.7088 89.1384Z" fill="black"/>
<path opacity="0.1" d="M70.7088 89.1394L71.8433 88.9119L71.6357 84.0557L70.6375 84.2539L70.7088 89.1394Z" fill="black"/>
<path opacity="0.1" d="M46.8897 68.7961C46.8897 68.7961 52.0086 66.1415 53.8687 74.4829C55.7289 82.8243 55.7561 86.6266 55.7561 86.6266L71.6771 84.1787L71.9246 89.9364C71.9246 89.9364 54.8124 94.6174 52.7091 94.129C50.6057 93.6407 44.2201 81.8476 44.2201 81.8476C44.2201 81.8476 38.3693 72.6756 46.8897 68.7961Z" fill="black"/>
</g>
<path d="M75.4283 133.639L81.7069 137.604C81.7069 137.604 90.0092 138.987 84.3618 140.684C78.7144 142.381 65.8804 139.787 65.8804 139.787C65.8804 139.787 66.8555 134.039 67.8936 133.278C68.9316 132.516 75.4283 133.639 75.4283 133.639Z" fill="#F37291"/>
<path d="M52.151 91.105C52.151 91.105 55.2819 92.9143 60.9126 94.6047C64.2133 95.596 68.3655 96.3619 71.2343 96.8273C72.706 97.0534 74.077 97.7098 75.1729 98.7131C76.2688 99.7164 77.0403 101.021 77.3892 102.462C77.6144 103.309 77.6007 104.202 77.3494 105.041C76.2547 108.301 76.477 135.191 76.477 135.191L66.6543 135.661C66.6543 135.661 68.2083 130.775 66.2936 128.196C64.379 125.616 67.5854 106.757 67.5854 106.757C67.5854 106.757 64.1064 105.142 53.5162 104.58C43.5908 106.667 40.0237 95.7838 41.6719 92.8538C43.3202 89.9238 52.151 91.105 52.151 91.105Z" fill="#96A2D0"/>
<g opacity="0.1">
<path opacity="0.1" d="M75.4283 133.638L81.7069 137.603C81.7069 137.603 90.0092 138.987 84.3618 140.684C78.7144 142.38 65.8804 139.786 65.8804 139.786C65.8804 139.786 66.8555 134.039 67.8936 133.277C68.9316 132.515 75.4283 133.638 75.4283 133.638Z" fill="black"/>
<path opacity="0.1" d="M52.151 91.105C52.151 91.105 55.2819 92.9143 60.9126 94.6047C64.2133 95.596 68.3655 96.3619 71.2343 96.8273C72.706 97.0534 74.077 97.7098 75.1729 98.7131C76.2688 99.7164 77.0403 101.021 77.3892 102.462C77.6144 103.309 77.6007 104.202 77.3494 105.041C76.2547 108.301 76.477 135.191 76.477 135.191L66.6543 135.661C66.6543 135.661 68.2083 130.775 66.2936 128.196C64.379 125.616 67.5854 106.757 67.5854 106.757C67.5854 106.757 64.1064 105.142 53.5162 104.58C43.5908 106.667 40.0237 95.7838 41.6719 92.8538C43.3202 89.9238 52.151 91.105 52.151 91.105Z" fill="black"/>
</g>
<path d="M72.2992 135.749L78.5778 139.714C78.5778 139.714 86.8802 141.097 81.2327 142.794C75.5853 144.491 62.7512 141.897 62.7512 141.897C62.7512 141.897 63.7264 136.149 64.7644 135.388C65.8025 134.626 72.2992 135.749 72.2992 135.749Z" fill="#F37291"/>
<path d="M50.3982 106.688C60.9884 107.25 64.4675 108.865 64.4675 108.865C64.4675 108.865 63.463 127.192 64.8869 129.859C66.4073 132.689 63.528 137.769 63.528 137.769L73.3507 137.299C73.3507 137.299 73.3507 136.982 73.3507 136.414C73.3213 131.744 73.25 110.057 74.2252 107.15C74.4764 106.31 74.4902 105.417 74.265 104.57C73.9158 103.13 73.1443 101.825 72.0484 100.822C70.9525 99.8184 69.5817 99.1619 68.1101 98.9356C65.2392 98.4723 61.0891 97.7064 57.7883 96.7151L57.6268 96.665C52.0968 94.9955 49.0288 93.2154 49.0288 93.2154C49.0288 93.2154 42.488 92.7646 40.8502 95.6946C40.6405 96.0744 39.7367 96.8216 39.6989 97.4247C39.4536 101.461 41.7624 108.498 50.3982 106.688Z" fill="#96A2D0"/>
<path d="M65.9519 89.5816L66.1385 93.455C66.1385 93.455 67.0025 93.432 68.2901 93.3548C72.6835 93.0939 82.0155 92.2299 78.8447 89.6401C76.1185 87.4133 71.3162 88.1229 68.4076 88.847C67.3402 89.1141 66.5202 89.3813 66.1637 89.5086C66.0253 89.5545 65.9519 89.5816 65.9519 89.5816Z" fill="#F8B9BF"/>
<path d="M41.0369 63.2222C41.0369 63.2222 42.2951 64.3011 43.8553 65.4949C45.5959 65.9665 47.6301 66.386 49.0833 66.6635C48.6325 64.9627 49.033 63.1158 49.6978 61.4901C50.4192 59.799 51.3765 58.2176 52.5414 56.7924L43.7966 53.6475C44.4153 55.4318 44.0063 57.4248 43.3415 59.1298C42.7547 60.5875 41.98 61.9632 41.0369 63.2222Z" fill="#F8B9BF"/>
<path opacity="0.1" d="M66.0044 90.6733L66.1386 93.4552C66.1386 93.4552 67.0026 93.4322 68.2902 93.355L68.4076 88.8452C67.3402 89.1123 66.5203 89.3795 66.1638 89.5068L66.0044 90.6733Z" fill="black"/>
<path d="M65.4294 93.5865L68.1074 93.4592L68.2332 88.6426L66.09 88.7448L65.4294 93.5865Z" fill="#D9DFE8"/>
<path d="M39.8891 98.5513C45.5512 104.409 56.11 97.4473 58.9494 95.3855C59.4107 95.0495 59.6687 94.8429 59.6687 94.8429C58.6201 93.7806 56.9425 92.7977 56.2987 90.1369C55.6845 87.4212 55.2682 84.6648 55.053 81.8894C54.879 79.6877 57.1648 75.4951 56.5042 73.404C55.8436 71.313 53.1237 70.6264 51.9808 68.7336C51.6809 68.241 51.3832 67.7777 51.0896 67.3729C48.9799 64.4512 45.3037 62.4833 45.3037 62.4833C37.4712 59.8225 36.8567 70.954 37.0518 71.3004C37.2468 71.6469 36.3513 83.9179 39.8891 98.5513Z" fill="#2196F3"/>
<path opacity="0.1" d="M39.8305 82.5195C39.8305 82.5195 44.3791 95.1286 46.386 95.9237C47.5352 96.3787 53.8033 95.8882 58.9495 95.3853C59.4109 95.0493 59.6688 94.8427 59.6688 94.8427C58.6203 93.7805 57.7668 91.5913 57.1251 88.9326L50.5214 88.9555C50.5214 88.9555 51.0562 85.1991 50.4648 76.6657C49.8734 68.1324 44.4147 70.0085 44.4147 70.0085C35.412 72.5775 39.8305 82.5195 39.8305 82.5195Z" fill="black"/>
<path opacity="0.1" d="M65.4294 93.5864L66.5849 93.5321L67.1071 88.6968L66.09 88.7448L65.4294 93.5864Z" fill="black"/>
<path d="M44.5702 69.466C44.5702 69.466 50.0226 67.6024 50.6203 76.1233C51.2179 84.6441 50.6832 88.4131 50.6832 88.4131L66.7929 88.3547L66.1743 94.0853C66.1743 94.0853 48.5589 96.1722 46.5457 95.3813C44.5325 94.5903 39.9881 81.9792 39.9881 81.9792C39.9881 81.9792 35.5654 72.035 44.5702 69.466Z" fill="#2196F3"/>
<path opacity="0.1" d="M44.769 56.9013C45.0605 55.6491 43.7204 55.6095 43.301 54.397L52.05 57.5274C51.3983 58.3224 50.8107 59.1675 50.2927 60.0546C49.8267 60.1702 49.3505 60.2401 48.8708 60.2633C46.7444 60.3677 46.1761 58.2745 44.769 56.9013Z" fill="black"/>
<path d="M49.3701 59.532C53.4145 59.3386 56.5355 55.9192 56.3413 51.8945C56.147 47.8697 52.711 44.7638 48.6666 44.9571C44.6223 45.1504 41.5012 48.5698 41.6955 52.5946C41.8898 56.6193 45.3258 59.7253 49.3701 59.532Z" fill="#F8B9BF"/>
<path opacity="0.1" d="M45.231 74.8774C45.231 74.8774 47.5503 85.8108 50.2891 86.9273C53.0279 88.0437 51.7864 88.2817 51.7864 88.2817" fill="black"/>
<path opacity="0.1" d="M54.7891 81.0529C54.7891 81.0529 52.8514 81.656 50.595 78.7739L54.7891 81.0529Z" fill="black"/>
<path d="M40.1981 45.4232C42.0512 45.4232 43.5534 43.9283 43.5534 42.0842C43.5534 40.2401 42.0512 38.7451 40.1981 38.7451C38.345 38.7451 36.8428 40.2401 36.8428 42.0842C36.8428 43.9283 38.345 45.4232 40.1981 45.4232Z" fill="#FA595F"/>
<path d="M37.8401 43.8475C37.2568 43.2286 36.9322 42.4119 36.9322 41.5634C36.9322 40.7149 37.2568 39.8982 37.8401 39.2793C37.7856 39.3231 37.7311 39.3669 37.6807 39.4149C37.0322 40.0216 36.6524 40.8597 36.6249 41.745C36.5974 42.6303 36.9244 43.4902 37.5339 44.1355C38.1435 44.7809 38.9857 45.1588 39.8753 45.1862C40.7649 45.2136 41.629 44.8882 42.2775 44.2816C42.3299 44.2336 42.3761 44.1814 42.4222 44.1313C41.7652 44.6723 40.9259 44.9441 40.0747 44.8914C39.2236 44.8387 38.4246 44.4654 37.8401 43.8475Z" fill="#FA595F"/>
<path d="M39.7575 45.1076C38.906 45.1586 38.0668 44.885 37.4108 44.3422C36.7548 43.7995 36.3312 43.0284 36.2261 42.1859C36.2261 42.2548 36.2261 42.3237 36.2261 42.3946C36.2817 43.2785 36.6879 44.1043 37.3553 44.6901C37.6857 44.9802 38.0704 45.2027 38.4872 45.3449C38.9041 45.4871 39.345 45.5461 39.7848 45.5187C40.2246 45.4913 40.6547 45.378 41.0505 45.1852C41.4462 44.9924 41.8 44.7239 42.0915 44.395C42.383 44.0661 42.6066 43.6834 42.7494 43.2685C42.8923 42.8537 42.9517 42.4149 42.9241 41.9772C42.9241 41.9063 42.9094 41.8395 42.9011 41.7686C42.9028 42.6188 42.5785 43.4376 41.9943 44.0581C41.4102 44.6786 40.6102 45.0539 39.7575 45.1076Z" fill="#FA595F"/>
<path opacity="0.1" d="M51.7205 44.9867C52.5027 45.3707 53.3982 45.4771 54.237 45.7192C55.0758 45.9613 55.9314 46.4037 56.3005 47.1925C56.571 47.7727 56.5396 48.4593 56.8227 49.0332C57.2295 49.868 58.169 50.252 59.033 50.5796C58.2906 51.5709 56.6969 51.3017 55.6567 50.6276C54.6166 49.9535 53.7211 48.9581 52.5111 48.6972C51.9141 48.58 51.2953 48.6493 50.7394 48.8955C50.1835 49.1416 49.7175 49.5527 49.4053 50.0725C49.074 50.6506 48.9566 51.3246 48.793 51.9674C48.3736 53.662 47.5347 55.3482 46.0668 56.3102C44.5988 57.2723 42.4116 57.266 41.2603 55.9492C40.5892 55.1812 40.3648 54.1357 40.1656 53.1381C40.0522 52.673 39.9979 52.1956 40.0041 51.717C40.0712 50.5191 40.8723 49.4986 41.6818 48.6096C42.636 47.5661 43.651 46.5644 44.6659 45.5689C45.5425 44.7091 46.5533 43.2525 47.8745 43.1502C49.3969 43.0292 50.4727 44.3794 51.7205 44.9867Z" fill="black"/>
<path d="M51.511 44.7777C52.2932 45.1617 53.1887 45.2681 54.0275 45.5102C54.8664 45.7523 55.722 46.1947 56.091 46.9836C56.3616 47.5637 56.3301 48.2503 56.6132 48.8242C57.0201 49.659 57.9595 50.043 58.8235 50.3706C58.0812 51.3619 56.4874 51.0927 55.4472 50.4186C54.4071 49.7445 53.5116 48.7491 52.3016 48.4882C51.7046 48.3711 51.0859 48.4403 50.5299 48.6865C49.974 48.9326 49.5081 49.3437 49.1959 49.8635C48.8645 50.4416 48.7471 51.1156 48.5835 51.7584C48.1641 53.453 47.3253 55.1392 45.8573 56.1013C44.3894 57.0633 42.2021 57.0571 41.0508 55.7402C40.3798 54.9723 40.1554 53.9267 39.9561 52.9292C39.8427 52.464 39.7884 51.9866 39.7947 51.508C39.8618 50.3101 40.6629 49.2896 41.4723 48.4006C42.4265 47.3571 43.4415 46.3554 44.4565 45.36C45.333 44.5001 46.3438 43.0435 47.665 42.9412C49.1875 42.8202 50.2633 44.1704 51.511 44.7777Z" fill="#FA595F"/>
<path d="M52.3206 91.127H31.9727C30.9882 91.127 30.1902 91.9211 30.1902 92.9008V93.0302C30.1902 94.0098 30.9882 94.804 31.9727 94.804H52.3206C53.305 94.804 54.1031 94.0098 54.1031 93.0302V92.9008C54.1031 91.9211 53.305 91.127 52.3206 91.127Z" fill="#D6D6E3"/>
<path opacity="0.1" d="M30.1902 93.0049V93.295C30.1902 93.6962 30.3504 94.0811 30.6355 94.3648C30.9206 94.6486 31.3073 94.808 31.7106 94.808H52.5827C52.986 94.808 53.3727 94.6486 53.6578 94.3648C53.9429 94.0811 54.1031 93.6962 54.1031 93.295V93.0049H30.1902Z" fill="black"/>
<path d="M76.4138 94.96H72.3015V147.097H76.4138V94.96Z" fill="#D6D6E3"/>
<path opacity="0.1" d="M76.4138 94.96H72.3015V98.3408H76.4138V94.96Z" fill="black"/>
<path d="M179.052 91.2217H70.3352V97.9833H179.052V91.2217Z" fill="#D6D6E3"/>
</g>
<defs>
<linearGradient id="paint0_linear" x1="181.707" y1="145.328" x2="191.33" y2="37.8839" gradientUnits="userSpaceOnUse">
<stop stop-color="#808080" stop-opacity="0.25"/>
<stop offset="0.54" stop-color="#808080" stop-opacity="0.12"/>
<stop offset="1" stop-color="#808080" stop-opacity="0.1"/>
</linearGradient>
<linearGradient id="paint1_linear" x1="16872.9" y1="75657.7" x2="16872.9" y2="21067.6" gradientUnits="userSpaceOnUse">
<stop stop-color="#808080" stop-opacity="0.25"/>
<stop offset="0.54" stop-color="#808080" stop-opacity="0.12"/>
<stop offset="1" stop-color="#808080" stop-opacity="0.1"/>
</linearGradient>
<clipPath id="clip0">
<rect width="235" height="180" fill="white" transform="translate(0.5 0.5)"/>
</clipPath>
</defs>
</svg>
