<svg width="224" height="169" viewBox="0 0 224 169" fill="none" xmlns="http://www.w3.org/2000/svg">
<g clip-path="url(#clip0)">
<path d="M64.6897 0V2.40301V43.3824H114.96V2.40301V0H64.6897Z" fill="url(#paint0_linear)"/>
<path d="M114.638 0H65.0117V1.40134H114.638V0Z" fill="#535461"/>
<path d="M114.638 1.36182H65.0117V42.8371H114.638V1.36182Z" fill="#EDEDF4"/>
<path d="M112.445 7.81592H67.3306V35.8872H112.445V7.81592Z" fill="white"/>
<path d="M65.9349 0.920034C66.0674 0.920034 66.1749 0.81289 66.1749 0.68072C66.1749 0.548551 66.0674 0.441406 65.9349 0.441406C65.8023 0.441406 65.6948 0.548551 65.6948 0.68072C65.6948 0.81289 65.8023 0.920034 65.9349 0.920034Z" fill="#FA595F"/>
<path d="M66.6573 0.920034C66.7898 0.920034 66.8973 0.81289 66.8973 0.68072C66.8973 0.548551 66.7898 0.441406 66.6573 0.441406C66.5247 0.441406 66.4172 0.548551 66.4172 0.68072C66.4172 0.81289 66.5247 0.920034 66.6573 0.920034Z" fill="#FFC74C"/>
<path d="M67.3802 0.920034C67.5128 0.920034 67.6202 0.81289 67.6202 0.68072C67.6202 0.548551 67.5128 0.441406 67.3802 0.441406C67.2476 0.441406 67.1401 0.548551 67.1401 0.68072C67.1401 0.81289 67.2476 0.920034 67.3802 0.920034Z" fill="#85D459"/>
<path d="M71.9663 10.2217V32.2213H108.466" stroke="#535461" stroke-width="2" stroke-miterlimit="10"/>
<path opacity="0.5" d="M78.9652 25.5674H75.1963V31.3627H78.9652V25.5674Z" fill="#2196F3"/>
<path opacity="0.7" d="M85.4251 20.4155H81.6562V31.3623H85.4251V20.4155Z" fill="#2196F3"/>
<path opacity="0.5" d="M91.8848 23.5293H88.116V31.365H91.8848V23.5293Z" fill="#2196F3"/>
<path opacity="0.8" d="M98.3473 18.6982H94.5784V31.3621H98.3473V18.6982Z" fill="#2196F3"/>
<path d="M104.807 14.1909H101.038V31.3623H104.807V14.1909Z" fill="#2196F3"/>
<path d="M77.0278 22.0267L83.5941 16.1228L90.0564 21.7035L96.4073 14.9435L102.867 12.2593" stroke="#535461" stroke-width="0.5" stroke-miterlimit="10"/>
<path d="M77.0279 22.7794C77.4448 22.7794 77.7827 22.4425 77.7827 22.0269C77.7827 21.6113 77.4448 21.2744 77.0279 21.2744C76.6111 21.2744 76.2732 21.6113 76.2732 22.0269C76.2732 22.4425 76.6111 22.7794 77.0279 22.7794Z" fill="#2196F3"/>
<path d="M89.9472 22.3497C90.364 22.3497 90.7019 22.0128 90.7019 21.5972C90.7019 21.1816 90.364 20.8447 89.9472 20.8447C89.5303 20.8447 89.1924 21.1816 89.1924 21.5972C89.1924 22.0128 89.5303 22.3497 89.9472 22.3497Z" fill="#2196F3"/>
<path d="M96.5162 15.6959C96.9331 15.6959 97.271 15.359 97.271 14.9434C97.271 14.5278 96.9331 14.1909 96.5162 14.1909C96.0994 14.1909 95.7615 14.5278 95.7615 14.9434C95.7615 15.359 96.0994 15.6959 96.5162 15.6959Z" fill="#2196F3"/>
<path d="M83.5941 16.7691C84.011 16.7691 84.3489 16.4322 84.3489 16.0166C84.3489 15.6011 84.011 15.2642 83.5941 15.2642C83.1773 15.2642 82.8394 15.6011 82.8394 16.0166C82.8394 16.4322 83.1773 16.7691 83.5941 16.7691Z" fill="#2196F3"/>
<path d="M102.867 13.0118C103.284 13.0118 103.622 12.6749 103.622 12.2593C103.622 11.8437 103.284 11.5068 102.867 11.5068C102.45 11.5068 102.112 11.8437 102.112 12.2593C102.112 12.6749 102.45 13.0118 102.867 13.0118Z" fill="#2196F3"/>
<path d="M111.441 169C172.988 169 222.881 154.791 222.881 137.263C222.881 119.735 172.988 105.525 111.441 105.525C49.8937 105.525 0 119.735 0 137.263C0 154.791 49.8937 169 111.441 169Z" fill="#F5F5F5"/>
<path d="M135.241 76.1359C135.241 76.1359 138.32 61.0641 150.091 62.4605C150.091 62.4605 158.211 63.0181 159.892 68.3225V80.0439L135.241 76.1359Z" fill="#535461"/>
<path d="M162.803 51.3117C161.422 51.1563 160.112 50.5716 158.825 49.9992C156.662 49.0247 154.447 47.9959 152.774 46.1874C150.259 43.4736 149.346 39.4669 147.576 36.1042C146.921 34.7869 146.045 33.5911 144.985 32.5688C144.108 31.7735 143.092 31.1455 141.988 30.7159C139.817 29.8563 137.416 29.7691 135.189 30.4692L136.426 30.2644L131.132 31.9495C130.474 32.1617 129.751 32.4306 129.417 33.0943C129.083 33.7579 129.296 34.7078 129.771 35.3147C130.246 35.9216 130.914 36.2744 131.563 36.6149L132.12 36.906C131.668 37.9618 131.495 39.1156 131.619 40.2569C131.742 41.3982 132.158 42.4888 132.825 43.4242V48.8347C131.517 49.305 130.121 49.4819 128.736 49.3528C128.356 49.4791 128.005 49.6824 127.707 49.9498C127.061 50.4433 126.242 51.4301 125.907 53.2534C125.346 56.3274 118.977 66.798 118.314 67.8737L107.919 70.5876L107.981 70.6468L107.78 70.6986C107.78 70.6986 107.862 70.7751 107.991 70.9108C106.818 70.9897 104.753 70.9848 103.112 70.215C101.429 69.4255 98.7266 70.2348 97.2218 70.8071C97.1088 70.8503 97.0104 70.9245 96.9379 71.0212C96.8654 71.1178 96.8219 71.2329 96.8123 71.3532C96.8027 71.4735 96.8275 71.594 96.8838 71.7008C96.94 71.8076 97.0255 71.8964 97.1302 71.9568C99.1562 73.103 101.428 73.7485 103.756 73.8393C106.295 73.9725 108.374 73.9898 109.797 73.975C109.831 74.1891 109.82 74.4078 109.765 74.6174C109.71 74.8271 109.612 75.0232 109.478 75.1937L121.9 73.4223C122.264 73.2151 122.608 72.9747 122.927 72.7044C123.692 72.0995 124.35 71.3725 124.875 70.553L127.551 67.0669C127.719 67.6689 129.464 74.0588 128.877 76.1781L128.251 78.5269L131.909 78.9043V78.8254L142.98 80.3057V80.059H143L143.047 77.989L155.88 77.577C155.88 77.577 158.108 75.7735 157.135 72.8894C156.162 70.0053 156.521 61.6441 156.521 61.6441C156.186 59.3257 155.677 57.0356 154.999 54.7929C157.835 54.3892 160.604 53.6109 163.233 52.4787C164.51 51.931 165.8 51.2673 166.698 50.1102C165.669 51.1464 164.184 51.4671 162.803 51.3117Z" fill="url(#paint1_linear)"/>
<path d="M143.185 37.1309H132.79V53.1673H143.185V37.1309Z" fill="#FE5858"/>
<path opacity="0.1" d="M143.185 37.1309H132.79V53.1673H143.185V37.1309Z" fill="black"/>
<path d="M134.941 43.025C135.588 43.8662 135.988 44.8701 136.097 45.9248C136.205 46.9794 136.018 48.0433 135.555 48.9979C133.966 52.4026 134.939 57.3048 136.218 58.0524C137.498 58.7999 142.579 59.8189 144.165 57.6428C145.752 55.4668 145.663 49.1805 145.141 48.2677C144.618 47.3548 140.747 46.5826 140.913 41.4287L134.941 43.025Z" fill="#F2B08D"/>
<path opacity="0.1" d="M134.276 49.3579C134.276 49.3579 136.315 62.9864 143.22 53.6063L142.649 79.2647L130.162 77.6043L134.276 49.3579Z" fill="black"/>
<path d="M134.258 49.6021C134.258 49.6021 136.297 63.2306 143.203 53.8505L142.631 79.5089L130.144 77.8485L134.258 49.6021Z" fill="#F1C413"/>
<path d="M141.881 73.6441C141.881 73.6441 138.126 74.1177 135.528 72.9878C135.528 72.9878 130.578 74.3225 131.073 75.4821C131.568 76.6416 142.926 76.7157 142.926 76.7157L141.881 73.6441Z" fill="#F2B08D"/>
<path d="M109.624 70.3212C109.624 70.3212 106.359 70.8442 104.003 69.7389C102.374 68.9741 99.7559 69.7587 98.2957 70.3138C98.1865 70.3558 98.0915 70.4277 98.0215 70.5212C97.9515 70.6147 97.9095 70.7259 97.9002 70.8422C97.8909 70.9585 97.9147 71.075 97.9689 71.1784C98.0231 71.2817 98.1055 71.3677 98.2066 71.4265C100.169 72.5366 102.37 73.1618 104.624 73.2497C109.416 73.4964 112.52 73.3287 112.52 73.3287L109.624 70.3212Z" fill="#F2B08D"/>
<path opacity="0.1" d="M141.03 55.7184L139.129 73.9753L140.891 73.6645C140.891 73.6645 143.614 75.917 141.257 77.2715L154.887 76.852C154.887 76.852 157.046 75.1053 156.103 72.3001C155.16 69.495 155.509 61.4052 155.509 61.4052C155.509 61.4052 154.105 51.1665 151.318 50.6311C151.318 50.6311 145.683 49.5308 142.391 45.8794L141.03 55.7184Z" fill="black"/>
<path d="M141.274 55.743L139.374 73.9999L141.136 73.6891C141.136 73.6891 143.858 75.9416 141.502 77.296L155.132 76.8594C155.132 76.8594 157.29 75.1126 156.347 72.3075C155.404 69.5023 155.753 61.4125 155.753 61.4125C155.753 61.4125 154.35 51.1738 151.563 50.6385C151.563 50.6385 145.927 49.5381 142.636 45.8867L141.274 55.743Z" fill="#39447A"/>
<path opacity="0.1" d="M135.909 47.3721C135.909 47.3721 132.726 50.0588 128.694 49.6418C128.694 49.6418 126.662 50.1698 126.09 53.313C125.519 56.4561 118.683 67.5633 118.683 67.5633L108.535 70.2056C108.535 70.2056 111.458 72.9688 110.181 74.5626L122.214 72.8528C123.325 72.1935 124.263 71.2812 124.952 70.1908L127.674 66.6553C127.674 66.6553 129.568 73.3759 128.974 75.5371L128.367 77.8143L131.912 78.1819C131.912 78.1819 132.085 69.2459 132.919 65.7746C133.28 64.2721 133.592 62.7622 133.82 61.235C134.399 57.3369 135.305 51.4083 135.644 50.6262L135.909 47.3721Z" fill="black"/>
<path d="M136.045 47.2632C136.045 47.2632 132.862 49.9598 128.83 49.533C128.83 49.533 126.798 50.0609 126.226 53.2041C125.655 56.3472 118.816 67.4568 118.816 67.4568L108.668 70.0991C108.668 70.0991 111.591 72.8624 110.314 74.4561L122.348 72.7464C123.463 72.0862 124.405 71.1712 125.095 70.0769L127.818 66.5415C127.818 66.5415 129.711 73.262 129.117 75.4233L128.511 77.7004L132.048 78.0557C132.048 78.0557 132.221 69.1197 133.055 65.6484C133.416 64.1459 133.728 62.636 133.956 61.1088C134.535 57.2107 135.441 51.2822 135.78 50.5001L136.045 47.2632Z" fill="#39447A"/>
<path opacity="0.1" d="M141.895 44.8404C141.313 43.9251 140.816 43.5353 140.873 41.791L134.904 43.3897C135.61 44.3095 136.022 45.4205 136.084 46.5773C136.507 46.7106 136.942 46.8007 137.383 46.8462C139.014 47.0164 140.655 45.7138 141.895 44.8404Z" fill="black"/>
<path d="M144.562 40.6921C144.932 37.1276 142.334 33.9384 138.758 33.5688C135.182 33.1992 131.983 35.7892 131.612 39.3536C131.242 42.9181 133.84 46.1072 137.416 46.4769C140.991 46.8465 144.191 44.2565 144.562 40.6921Z" fill="#F2B08D"/>
<path opacity="0.1" d="M128.803 58.7012C128.803 58.7012 129.981 60.4282 129.258 61.457C128.536 62.4858 128.37 64.0722 128.635 65.0862" fill="black"/>
<path opacity="0.1" d="M147.846 58.4541C147.846 58.4541 150.021 68.4041 149.432 69.3293L147.846 58.4541Z" fill="black"/>
<path opacity="0.1" d="M142.923 72.1424C142.923 72.1424 149.09 72.6161 148.738 71.2246L142.923 72.1424Z" fill="black"/>
<path d="M135.08 31.2094C137.238 30.5344 139.564 30.6215 141.666 31.4561C142.739 31.8741 143.725 32.4854 144.576 33.2596C145.603 34.2499 146.452 35.4081 147.086 36.684C148.794 39.9432 149.68 43.8265 152.115 46.454C153.736 48.2032 155.882 49.2024 157.979 50.1547C159.216 50.7147 160.493 51.2773 161.832 51.4278C163.171 51.5782 164.609 51.2674 165.607 50.2657C164.745 51.3858 163.495 52.0297 162.258 52.5602C157.386 54.6559 152.056 55.4689 146.779 54.9212C145.294 54.7633 143.809 54.492 142.433 53.8357C141.443 53.362 140.483 52.6194 140.091 51.5067C139.191 48.9409 141.72 46.2171 141.245 43.5107C140.997 42.1216 139.985 41.0435 138.856 40.3774C137.728 39.7112 136.468 39.3905 135.263 38.9464C133.996 38.4354 132.762 37.8479 131.568 37.1873C130.939 36.8567 130.29 36.5089 129.835 35.9266C129.38 35.3444 129.154 34.4463 129.493 33.7827C129.833 33.119 130.518 32.8797 131.154 32.6724L136.285 31.017" fill="#FE5858"/>
<path d="M199.638 81.7197L94.9199 73.0674L81.4805 75.8577L82.3195 94.5588L83.2377 94.6698L84.2797 122.749L187.041 141.168L197.96 131.958V101.516L199.359 100.7L199.638 81.7197Z" fill="#EDEDF4"/>
<path opacity="0.05" d="M199.779 81.7197L199.5 100.7L188.159 106.001L188.018 86.1853L199.779 81.7197Z" fill="black"/>
<path opacity="0.05" d="M197.96 101.535L198.099 131.4L187.179 140.61L187.879 106.001L197.96 101.535Z" fill="black"/>
<path opacity="0.05" d="M83.3763 95.7853L187.964 108.508L188.018 106.095L83.2996 94.8379L83.3763 95.7853Z" fill="black"/>
<path opacity="0.05" d="M197.96 102.631V101.535L187.6 106.095V108.512L197.96 102.631Z" fill="black"/>
<path d="M81.3391 75.8577L94.7785 73.0674L199.499 81.7197L187.738 86.1852L81.3391 75.8577Z" fill="#F4F4F8"/>
<path d="M210.311 120.274C214.763 120.274 218.372 118.952 218.372 117.323C218.372 115.693 214.763 114.372 210.311 114.372C205.859 114.372 202.25 115.693 202.25 117.323C202.25 118.952 205.859 120.274 210.311 120.274Z" fill="#CD9494"/>
<path opacity="0.05" d="M210.31 118.5C212.582 118.5 214.423 117.826 214.423 116.995C214.423 116.164 212.582 115.49 210.31 115.49C208.039 115.49 206.197 116.164 206.197 116.995C206.197 117.826 208.039 118.5 210.31 118.5Z" fill="black"/>
<path d="M202.252 116.667C202.252 116.667 211.135 121.586 218.375 117.323C218.375 117.323 217.385 134.376 212.452 136.017H205.871C205.871 136.017 200.277 124.537 202.252 116.667Z" fill="#FF7361"/>
<path d="M217.273 85.4173C219.533 93.6552 209.892 117.123 209.892 117.123C209.892 117.123 189.597 101.826 187.347 93.5787C186.309 89.6382 186.872 85.4484 188.915 81.9197C190.958 78.3909 194.315 75.8084 198.258 74.7333C202.2 73.6581 206.409 74.1772 209.969 76.1778C213.53 78.1783 216.154 81.4987 217.273 85.4173Z" fill="#2196F3"/>
<path opacity="0.1" d="M217.273 85.4173C219.533 93.6552 209.892 117.123 209.892 117.123C209.892 117.123 189.597 101.826 187.347 93.5787C186.309 89.6382 186.872 85.4484 188.915 81.9197C190.958 78.3909 194.315 75.8084 198.258 74.7333C202.2 73.6581 206.409 74.1772 209.969 76.1778C213.53 78.1783 216.154 81.4987 217.273 85.4173Z" fill="black"/>
<path d="M198.299 74.6313C198.299 74.6313 210.922 93.6284 209.974 117.17" stroke="#535461" stroke-width="0.5" stroke-miterlimit="10"/>
<path d="M220.495 100.475C220.495 100.475 209.046 94.2675 210.506 117.185C210.506 117.185 220.057 116.845 223.446 109.078C224.108 107.567 224.192 105.867 223.681 104.3C223.17 102.732 222.1 101.405 220.674 100.571L220.495 100.475Z" fill="#2196F3"/>
<path d="M220.684 100.515C220.684 100.515 219.199 112.411 210.496 117.185" stroke="#535461" stroke-width="0.5" stroke-miterlimit="10"/>
<path opacity="0.05" d="M217.295 117.88C216.961 121.803 215.597 133.988 211.464 135.36H205.556C205.744 135.78 205.858 136.016 205.858 136.016H212.439C217.374 134.376 218.362 117.323 218.362 117.323C218.016 117.526 217.66 117.712 217.295 117.88Z" fill="black"/>
<path d="M171.079 45.4354C176.181 45.4354 180.318 41.312 180.318 36.2255C180.318 31.139 176.181 27.0156 171.079 27.0156C165.976 27.0156 161.839 31.139 161.839 36.2255C161.839 41.312 165.976 45.4354 171.079 45.4354Z" fill="#535461"/>
<path d="M171.079 44.0415C175.409 44.0415 178.92 40.5422 178.92 36.2256C178.92 31.909 175.409 28.4097 171.079 28.4097C166.749 28.4097 163.238 31.909 163.238 36.2256C163.238 40.5422 166.749 44.0415 171.079 44.0415Z" fill="#EDEDF4"/>
<path d="M171.079 36.7826C171.388 36.7826 171.638 36.533 171.638 36.2251C171.638 35.9171 171.388 35.6675 171.079 35.6675C170.77 35.6675 170.52 35.9171 170.52 36.2251C170.52 36.533 170.77 36.7826 171.079 36.7826Z" fill="#535461"/>
<path d="M174.439 30.3628L171.079 36.2248" stroke="#535461" stroke-width="0.5" stroke-miterlimit="10" stroke-linecap="round"/>
<path d="M171.24 36.2866L174.578 38.0383" stroke="#535461" stroke-width="0.75" stroke-miterlimit="10" stroke-linecap="round"/>
<path d="M50.3509 138.425C49.3906 137.833 48.8832 136.347 48.6184 135.099L49.2347 134.889C49.2347 134.889 47.2225 114.111 46.777 113.006C46.3315 111.9 45.8835 107.921 45.8835 107.921L45.1583 86.2494C48.4971 85.0405 49.9004 82.7016 50.3732 81.6778C50.5437 81.3764 50.6862 81.0601 50.7989 80.7329C46.0963 74.9869 42.3071 59.5153 42.3071 59.5153L42.9431 57.8821L43.2228 57.1641C44.1559 61.0869 48.3412 62.8386 48.3412 62.8386L48.2793 62.2637C48.4451 62.3452 48.5466 62.3896 48.5615 62.3945C49.4401 63.0434 50.3732 63.3814 51.2469 63.0606C53.9892 62.017 53.9446 57.2332 53.9298 56.7003C53.9298 56.3919 53.9298 56.2069 53.9298 56.2069L51.2444 46.2593C51.1742 46.762 51.0591 47.2574 50.9004 47.7396C50.7444 45.6795 50.5464 41.8184 51.0216 39.6251C51.5488 37.1876 46.3933 38.8652 45.0543 41.7395C44.5783 41.1005 43.9629 40.5776 43.2547 40.21C42.5464 39.8425 41.7637 39.64 40.9656 39.6177C36.2927 39.4179 33.0975 36.4746 32.5505 35.9441C32.4307 35.4405 32.339 34.9307 32.2758 34.417C33.1852 33.6061 33.8756 32.5804 34.2834 31.4341C34.6912 30.2878 34.8034 29.0577 34.6097 27.8568C34.73 27.803 34.8473 27.7429 34.9612 27.6767C36.6194 26.6898 37.1516 24.5755 37.2555 22.6659C37.2555 22.5672 37.2555 22.4611 37.2555 22.3551C37.2803 21.721 37.1342 20.9364 36.513 20.8082C35.6987 20.6379 35.1022 21.8592 34.2855 21.7284C34.035 21.6694 33.8092 21.534 33.6395 21.3411C33.0777 20.7859 32.699 20.0729 32.1421 19.5178C31.3105 18.6889 30.1274 18.267 28.9493 18.1658C27.768 18.1023 26.5837 18.2129 25.4348 18.494C24.8019 18.5969 24.1906 18.8036 23.6255 19.1058C23.3458 19.2574 23.1032 19.4686 22.9149 19.7245C22.7266 19.9804 22.5974 20.2746 22.5365 20.5861C22.5211 20.7204 22.517 20.8557 22.5241 20.9907C22.5241 21.1955 22.5241 21.4052 22.5415 21.61C22.5387 21.6994 22.5288 21.7885 22.5118 21.8764C22.393 22.4562 21.9128 22.9003 21.4005 23.2038C20.8882 23.5072 20.3164 23.7194 19.8338 24.0673C19.0624 24.6591 18.5266 25.5044 18.3215 26.453C18.1976 26.9875 18.1411 27.5353 18.1532 28.0838C18.1471 28.5786 18.1761 29.0733 18.2399 29.5641C18.4438 31.2156 18.9091 32.8244 19.6185 34.3306C19.8522 34.8603 20.1533 35.3578 20.5144 35.8109C21.0445 36.3869 21.6536 36.8852 22.3237 37.2912C22.5959 37.4738 22.9202 37.6613 23.232 37.5601C23.3229 37.5264 23.4068 37.4762 23.4795 37.4121C23.9399 37.0322 24.0958 36.4252 24.0809 35.8183C24.0809 35.8825 24.1007 35.9491 24.1082 36.0108L24.1527 36.0305C24.1847 36.4295 24.1847 36.8305 24.1527 37.2295C23.7394 37.5799 20.9352 39.9089 17.7968 41.1967C16.7345 41.6357 15.7835 42.3049 15.013 43.1558C14.2424 44.0067 13.6715 45.018 13.3418 46.1162C12.868 47.7273 12.1591 49.2601 11.238 50.6656C10.79 51.3293 8.78031 60.3912 7.43884 62.1601C6.31765 63.6404 10.8296 71.782 14.0348 74.9104L14.1783 75.0461C14.9209 75.8207 15.604 76.361 16.1584 76.5264C16.0792 76.0252 16.0378 75.5188 16.0346 75.0115C16.3984 75.505 16.7499 75.986 17.0667 76.4622C16.9355 77.1604 16.7821 77.8463 16.6039 78.5149C14.3764 86.9032 15.7104 87.1351 15.7104 87.1351C15.7104 87.1351 15.7772 87.1672 15.8935 87.2116C16.0099 87.5496 16.1559 87.5767 16.1559 87.5767C16.1559 87.5767 16.2252 87.6113 16.3514 87.6581C16.4059 97.3319 17.9429 107.913 17.9429 107.913C17.9429 107.913 16.6014 121.177 17.2721 123.607C17.9429 126.037 17.2721 136.436 17.2721 136.436L17.73 136.557C17.4825 137.87 16.9875 139.481 15.9307 140.416C13.9185 142.185 11.9087 145.279 14.5892 146.162C17.2697 147.045 20.8461 146.384 21.2916 143.729L21.5143 141.741L24.6428 140.635L24.1082 136.935C24.9893 135.531 23.972 128.477 23.972 128.477C23.972 128.477 24.6428 126.045 25.5363 111.678C25.561 111.274 25.5907 110.881 25.6204 110.492C25.6204 110.378 25.6377 110.267 25.6476 110.156C25.6724 109.862 25.6988 109.571 25.7268 109.285C25.7268 109.187 25.7466 109.085 25.7565 108.987C25.7937 108.619 25.8333 108.247 25.8753 107.899C25.8753 107.844 25.8902 107.79 25.8951 107.736C25.9331 107.432 25.9719 107.132 26.0115 106.838L26.0535 106.532C26.0915 106.264 26.1311 106.001 26.1723 105.742C26.1723 105.666 26.1946 105.589 26.207 105.515C26.2598 105.186 26.3142 104.868 26.3703 104.561L26.4099 104.351C26.4545 104.106 26.5007 103.864 26.5485 103.626L26.603 103.357C26.6541 103.107 26.7061 102.86 26.7589 102.616L26.7886 102.478C26.853 102.195 26.9173 101.918 26.9817 101.649L27.0336 101.435C27.0848 101.229 27.1359 101.028 27.1871 100.83L27.2465 100.606C27.3133 100.359 27.3802 100.112 27.4495 99.8656V99.8459C27.5188 99.5992 27.5905 99.3673 27.6623 99.1353L27.7242 98.9355C27.7786 98.7628 27.8331 98.5934 27.8875 98.4273L27.9469 98.2496C28.0187 98.035 28.0905 97.8253 28.1623 97.623L28.1944 97.5366C28.2571 97.3623 28.3198 97.192 28.3825 97.0259L28.4469 96.8557C28.503 96.7077 28.5591 96.5637 28.6152 96.4239L28.6672 96.2956C28.7381 96.1197 28.8091 95.9494 28.88 95.785L28.927 95.6764C28.9831 95.5465 29.0392 95.4198 29.0954 95.2965L29.1597 95.1558C29.2174 95.0308 29.2744 94.9091 29.3305 94.7907L29.3651 94.7142C29.432 94.5736 29.4988 94.4403 29.5631 94.3121L29.6176 94.2084L29.7611 93.9296L29.8181 93.8236L29.9864 93.5127V93.4905L30.1571 93.192L30.2066 93.1081C30.4701 92.6421 30.7688 92.1967 31.1001 91.7758C31.1001 91.7758 38.9534 110.795 38.7381 114.106C38.5227 117.417 40.0795 124.715 40.0795 124.715C40.0795 124.715 40.7503 127.147 40.973 128.694C41.1636 130.009 42.3219 135.153 42.6635 136.671L42.7179 136.917V136.944L42.7328 137.011V137.048V137.07L42.515 139.752L45.4206 141.521C46.9849 145.942 50.3361 145.715 53.019 144.615C55.7019 143.514 52.1379 139.518 50.3509 138.425ZM47.0789 48.5143L47.0443 48.4847V48.4427L47.0789 48.5143ZM17.8067 68.3181C17.6459 68.1849 17.48 68.0369 17.3117 67.879C17.1236 67.6816 16.9405 67.4719 16.7697 67.2499L16.8885 67.3781C17.0618 67.541 17.235 67.6939 17.4008 67.8296C17.4261 65.2956 17.3237 62.762 17.0939 60.2382C17.2028 60.0556 17.3018 59.8953 17.3909 59.762C17.6967 62.6036 17.8355 65.4605 17.8067 68.3181Z" fill="url(#paint2_linear)"/>
<path d="M24.0225 34.4934V34.5477L23.9706 34.4712L24.0225 34.4934ZM17.2632 67.1832C16.3648 66.2309 15.5579 64.9849 15.6619 63.6403C15.8252 61.5359 16.8103 59.7842 17.3424 58.9774C17.6496 61.8494 17.7893 64.7367 17.7607 67.6248C17.5998 67.4916 17.4315 67.3411 17.2632 67.1832ZM47.0997 47.5422L47.1368 47.6088L47.1022 47.5792L47.0997 47.5422Z" fill="url(#paint3_linear)"/>
<path d="M47.8571 131.623C47.8571 131.623 48.0749 135.74 49.8123 136.823C51.5498 137.906 55.0297 141.807 52.421 142.89C49.8123 143.973 46.5527 144.19 45.0306 139.858L42.2041 138.131L42.6397 132.703L47.8571 131.623Z" fill="#1A2246"/>
<path d="M18.2952 132.918C18.2952 132.918 18.2952 137.036 16.3399 138.768C14.3847 140.5 12.4269 143.534 15.0356 144.4C17.6443 145.266 21.1217 144.617 21.5573 142.017L21.7751 140.068L24.8169 138.985L23.9482 132.918H18.2952Z" fill="#1A2246"/>
<path d="M44.5978 80.7029L45.4665 106.919C45.4665 106.919 45.9021 110.819 46.3352 111.903C46.7684 112.986 48.7261 133.35 48.7261 133.35L42.4222 135.516C42.4222 135.516 40.9001 128.8 40.6897 127.283C40.4793 125.766 39.8209 123.382 39.8209 123.382C39.8209 123.382 38.2988 116.227 38.5166 112.983C38.7344 109.739 31.1262 91.0995 31.1262 91.0995C31.1262 91.0995 26.5622 96.5273 25.6811 110.59C24.8 124.653 24.159 127.056 24.159 127.056C24.159 127.056 25.2455 134.64 24.159 135.506C23.0724 136.372 17.6373 134.857 17.6373 134.857C17.6373 134.857 18.2882 124.675 17.6373 122.292C16.9863 119.908 18.2882 106.909 18.2882 106.909C18.2882 106.909 14.1673 78.332 19.3846 72.6871L41.9891 71.1772L44.5978 80.7029Z" fill="#3B477B"/>
<g opacity="0.1">
<path opacity="0.1" d="M47.4203 133.35C47.4203 133.35 45.4654 112.983 45.0298 111.9C44.5943 110.817 44.1612 106.916 44.1612 106.916L43.2926 80.703L40.719 71.2563L41.9984 71.1699L44.6067 80.703L45.4753 106.919C45.4753 106.919 45.9108 110.82 46.3439 111.903C46.7769 112.986 48.7245 133.35 48.7245 133.35L42.4216 135.516L42.3275 135.099L47.4203 133.35Z" fill="black"/>
<path opacity="0.1" d="M22.8618 135.518C23.9482 134.652 22.8618 127.068 22.8618 127.068C22.8618 127.068 23.5126 124.685 24.3837 110.602C25.2548 96.5198 29.8279 91.1118 29.8279 91.1118C29.8279 91.1118 30.0111 91.5584 30.3229 92.3257C28.9692 94.6102 26.3411 100.277 25.7052 110.612C24.8366 124.695 24.1833 127.078 24.1833 127.078C24.1833 127.078 25.2696 134.662 24.1833 135.528C23.8442 135.799 23.0796 135.836 22.1912 135.762C22.432 135.739 22.6629 135.655 22.8618 135.518Z" fill="black"/>
</g>
<path d="M32.4251 29.5708C32.4251 29.5708 30.6925 37.3695 35.4669 41.4872C40.2412 45.6049 24.1634 48.8541 21.3394 45.3877C18.5154 41.9214 23.2947 40.187 23.2947 40.187C23.2947 40.187 25.6856 38.2379 23.2947 32.3883L32.4251 29.5708Z" fill="#E0A17E"/>
<path d="M33.7297 38.2383L28.0792 44.305L23.6984 38.4924L20.0354 56.0092L21.3397 76.3583C21.3397 76.3583 31.772 79.1758 37.6403 73.7579L35.9078 54.9088L33.7297 38.2383Z" fill="#F0F1F5"/>
<path opacity="0.1" d="M34.1628 75.5049L35.0266 78.3322C35.0266 78.3322 24.8122 80.0592 21.3323 79.1982L22.201 76.1661C22.201 76.1661 31.7719 78.537 34.1628 75.5049Z" fill="black"/>
<path d="M34.1628 75.0708L35.0266 77.8883C35.0266 77.8883 24.8122 79.6153 21.3323 78.7543L22.201 75.7221C22.201 75.7221 31.7719 78.1029 34.1628 75.0708Z" fill="#1A2246"/>
<path opacity="0.1" d="M32.2077 36.7212C32.2077 36.7212 35.4673 40.1875 40.4669 40.4047C45.4665 40.6218 46.1174 46.6885 46.1174 46.6885L47.8499 62.725C47.8499 62.725 43.7191 60.998 42.8503 57.0925L41.7638 59.91C41.7638 59.91 45.459 75.0756 50.023 80.7106C50.023 80.7106 48.0677 87.2115 38.5042 86.3431C38.5042 86.3431 33.2868 83.9598 33.5046 77.8931L31.8092 68.3945C31.2077 65.0579 30.9588 61.6676 31.0667 58.2792L32.2077 36.7212Z" fill="black"/>
<path d="M32.4253 36.2866C32.4253 36.2866 35.6849 39.753 40.6845 39.9701C45.684 40.1872 46.335 46.2589 46.335 46.2589L48.0675 62.2954C48.0675 62.2954 43.9367 60.5683 43.0679 56.6628L41.9814 59.4803C41.9814 59.4803 45.684 74.6311 50.248 80.271C50.248 80.271 48.2927 86.772 38.7292 85.9035C38.7292 85.9035 33.5119 83.5203 33.7297 77.4535L32.0219 67.9698C31.4203 64.6332 31.1715 61.2429 31.2794 57.8545L32.4253 36.2866Z" fill="#293158"/>
<path opacity="0.1" d="M24.321 37.7749C24.321 37.7749 21.888 40.5875 18.5789 41.9567C17.5446 42.391 16.6201 43.049 15.8723 43.8832C15.1245 44.7174 14.572 45.7069 14.255 46.78C13.7956 48.358 13.106 49.8601 12.2082 51.2382C11.7726 51.887 9.81728 60.7712 8.51294 62.5057C7.2086 64.2401 13.7303 75.288 16.5543 76.1564C16.5543 76.1564 15.4678 70.0897 19.8139 69.4408C19.8139 69.4408 15.9009 67.0576 16.1187 64.2401C16.3365 61.4226 18.074 59.2564 18.074 59.2564C18.074 59.2564 19.5961 70.3068 17.423 78.5397C15.25 86.7726 16.5543 86.9897 16.5543 86.9897C16.5543 86.9897 25.4644 91.322 24.1626 70.9532C22.8607 50.5844 23.9447 43.0028 23.9447 43.0028L24.321 37.7749Z" fill="black"/>
<path d="M16.1212 75.7193C16.1212 75.7193 15.2623 70.9256 18.126 69.4058C18.0319 72.2751 17.72 75.3467 16.9924 78.1025C14.8193 86.3354 16.1237 86.5525 16.1237 86.5525C16.351 86.6575 16.5881 86.7401 16.8315 86.7993C18.9155 87.3198 24.8085 87.347 23.7294 70.5161C22.4251 50.1497 23.5116 42.5657 23.5116 42.5657L24.3804 37.582C24.3804 37.582 21.4524 40.1479 18.1433 41.5171C17.1091 41.9515 16.1847 42.6096 15.4369 43.4438C14.6891 44.2779 14.1366 45.2673 13.8194 46.3404C13.3588 47.918 12.6692 49.4199 11.7726 50.7986C11.3369 51.4474 9.38167 60.3316 8.07733 62.0661C6.98585 63.5167 11.3765 71.4955 14.4926 74.5622C15.1015 75.1666 15.6608 75.5786 16.1212 75.7193ZM15.9999 65.4535C15.7607 64.9374 15.6536 64.3703 15.688 63.8029C15.8489 61.7256 16.8389 60.001 17.3438 59.2412C17.5245 58.9698 17.6433 58.8218 17.6433 58.8218C18.0203 61.9008 18.1915 65.0015 18.1557 68.1032C17.3958 67.4765 16.4776 66.5341 15.9999 65.4559V65.4535Z" fill="#293158"/>
<path opacity="0.1" d="M27.4252 37.1552C26.3408 37.1567 25.2703 36.912 24.2948 36.4397C24.1287 35.1953 23.7958 33.9789 23.3049 32.8229L32.4314 30.0054C32.0975 31.7527 32.0341 33.5408 32.2434 35.3073C30.9245 36.5004 29.2062 37.1595 27.4252 37.1552Z" fill="black"/>
<path d="M27.4256 36.7215C31.3869 36.7215 34.5982 33.5204 34.5982 29.5717C34.5982 25.623 31.3869 22.4219 27.4256 22.4219C23.4642 22.4219 20.2529 25.623 20.2529 29.5717C20.2529 33.5204 23.4642 36.7215 27.4256 36.7215Z" fill="#E0A17E"/>
<g opacity="0.1">
<path opacity="0.1" d="M49.3816 80.2714C44.8177 74.6389 41.1225 59.4708 41.1225 59.4708L42.2041 56.6533C42.2979 57.0707 42.4322 57.4781 42.605 57.8696L41.9863 59.4708C41.9863 59.4708 45.684 74.6315 50.2479 80.2714C50.2479 80.2714 48.4634 86.1925 39.9963 85.973C47.7159 85.7707 49.3816 80.2714 49.3816 80.2714Z" fill="black"/>
</g>
<path d="M50.4647 49.2886C50.4647 49.2886 49.8139 43.0047 50.4647 39.9726C51.1155 36.9405 42.8576 40.4068 44.5973 44.522C46.337 48.6373 48.0742 51.023 48.0742 51.023L50.4647 49.2886Z" fill="#E0A17E"/>
<path opacity="0.1" d="M50.6801 46.4717L53.2884 56.2219C53.2884 56.2219 53.5062 61.4226 50.6801 62.5057C47.8541 63.5888 44.3772 57.305 44.3772 57.305L46.1095 48.2061C46.1095 48.2061 49.8115 52.3213 50.6801 46.4717Z" fill="black"/>
<path d="M50.6801 46.9053L53.2884 56.6555C53.2884 56.6555 53.5062 61.8562 50.6801 62.9393C47.8541 64.0224 44.3772 57.7385 44.3772 57.7385L46.1095 48.6397C46.1095 48.6397 49.8115 52.7549 50.6801 46.9053Z" fill="#293158"/>
<path opacity="0.02" d="M50.6801 46.9053L53.2884 56.6555C53.2884 56.6555 53.5062 61.8562 50.6801 62.9393C47.8541 64.0224 44.3772 57.7385 44.3772 57.7385L46.1095 48.6397C46.1095 48.6397 49.8115 52.7549 50.6801 46.9053Z" fill="black"/>
<path opacity="0.1" d="M16.9933 78.1024C14.8206 86.3353 16.1247 86.5524 16.1247 86.5524C16.352 86.6574 16.5891 86.74 16.8325 86.7991C19.0225 82.4051 19.3937 75.2282 19.2032 69.0356C19.2032 68.9863 19.2032 68.937 19.2032 68.8851C19.0726 64.9738 18.7365 61.072 18.196 57.1958C17.9485 57.4104 17.6565 58.1506 17.3521 59.2411C17.5328 58.9697 17.6516 58.8217 17.6516 58.8217C18.0285 61.9007 18.1996 65.0014 18.1638 68.1031C18.1982 68.538 18.1883 68.9753 18.1341 69.4082C18.0327 72.275 17.7209 75.3466 16.9933 78.1024Z" fill="black"/>
<path d="M16.0037 74.0958L16.2511 74.4066C17.0843 75.4554 17.8105 76.5843 18.4189 77.7768C19.7206 80.5967 24.2492 72.8869 20.3838 70.622C19.7503 70.2544 19.1465 69.9213 18.5773 69.6352L18.1393 69.4106C16.3526 70.3531 16.0061 72.5587 16.0037 74.0958Z" fill="#E0A17E"/>
<path opacity="0.1" d="M16.0037 74.0958L16.2511 74.4067C16.2511 74.4067 16.3526 70.3704 18.5798 69.6327L18.1418 69.4082C16.3526 70.3531 16.0061 72.5588 16.0037 74.0958Z" fill="black"/>
<path opacity="0.1" d="M27.5124 27.6027C27.9159 27.4645 28.3391 27.2449 28.75 27.3806C28.9372 27.4557 29.1061 27.5701 29.245 27.7162C29.8117 28.2491 30.3711 28.8683 31.1309 29.0336C31.6007 29.1049 32.08 29.0839 32.5417 28.9719C33.3436 28.8313 34.1678 28.6808 34.8658 28.2663C36.4795 27.3066 36.9943 25.2243 37.0933 23.3542C37.1279 22.7251 36.9967 21.9109 36.378 21.7802C35.586 21.6124 35.0068 22.8114 34.2074 22.6807C33.9633 22.6222 33.7436 22.4894 33.5787 22.3008C33.0342 21.758 32.6655 21.0672 32.1209 20.5121C31.2732 19.7229 30.1752 19.2543 29.0173 19.1872C27.8674 19.1245 26.7147 19.2326 25.5968 19.5079C24.9808 19.6089 24.3861 19.8116 23.837 20.1075C23.5635 20.2575 23.3266 20.4661 23.1435 20.7182C22.9603 20.9703 22.8354 21.2596 22.7777 21.5655C22.7233 21.985 22.8371 22.4167 22.753 22.8287C22.6366 23.3986 22.1713 23.8304 21.6714 24.1314C21.1714 24.4324 20.617 24.6248 20.1468 24.9776C19.3959 25.5595 18.8752 26.3869 18.6766 27.314C18.483 28.2361 18.4562 29.1852 18.5974 30.1167C18.7924 31.7343 19.2418 33.3112 19.929 34.7895C20.1561 35.3073 20.4489 35.794 20.8002 36.2377C21.3148 36.8033 21.9073 37.2934 22.5599 37.6933C22.8247 37.871 23.1415 38.056 23.4435 37.9573C23.5345 37.9248 23.6184 37.8754 23.691 37.8117C24.3073 37.2986 24.3667 36.3685 24.186 35.5913C24.0053 34.8141 23.6638 34.0617 23.6266 33.2623C23.603 33.038 23.6479 32.8119 23.7553 32.6135C23.8844 32.4527 24.0304 32.3063 24.191 32.1768C24.4045 31.9378 24.5723 31.6619 24.686 31.3626C25.0151 30.6225 25.3493 29.8453 25.4285 29.0287C25.4985 28.36 25.3519 27.6864 25.0102 27.1068C25.3439 27.4062 25.7525 27.6104 26.1929 27.6977C26.6333 27.7849 27.0892 27.7521 27.5124 27.6027Z" fill="black"/>
<path d="M27.5124 27.3556C27.9159 27.2174 28.3391 26.9979 28.75 27.1335C28.9372 27.2086 29.1061 27.3231 29.245 27.4691C29.8117 28.002 30.3711 28.6212 31.1309 28.7865C31.6007 28.8578 32.08 28.8369 32.5417 28.7249C33.3436 28.5842 34.1678 28.4337 34.8658 28.0193C36.4795 27.0595 36.9943 24.9773 37.0933 23.1072C37.1279 22.478 36.9967 21.6639 36.378 21.5331C35.586 21.3653 35.0068 22.5644 34.2074 22.4336C33.9633 22.3752 33.7436 22.2424 33.5787 22.0537C33.0342 21.5109 32.6655 20.8201 32.1209 20.265C31.2732 19.4759 30.1752 19.0072 29.0173 18.9401C27.8674 18.8774 26.7147 18.9855 25.5968 19.2609C24.9808 19.3619 24.3861 19.5645 23.837 19.8604C23.5635 20.0105 23.3266 20.219 23.1435 20.4711C22.9603 20.7232 22.8354 21.0126 22.7777 21.3185C22.7233 21.7379 22.8371 22.1696 22.753 22.5817C22.6366 23.1516 22.1713 23.5833 21.6714 23.8843C21.1714 24.1853 20.617 24.3777 20.1468 24.7305C19.3959 25.3124 18.8752 26.1398 18.6766 27.0669C18.483 27.989 18.4562 28.9381 18.5974 29.8696C18.7924 31.4872 19.2418 33.0641 19.929 34.5424C20.1561 35.0602 20.4489 35.5469 20.8002 35.9906C21.3148 36.5563 21.9073 37.0464 22.5599 37.4463C22.8247 37.6239 23.1415 37.8089 23.4435 37.7102C23.5345 37.6777 23.6184 37.6283 23.691 37.5647C24.3073 37.0515 24.3667 36.1214 24.186 35.3442C24.0053 34.5671 23.6638 33.8146 23.6266 33.0152C23.603 32.791 23.6479 32.5648 23.7553 32.3664C23.8844 32.2056 24.0304 32.0592 24.191 31.9297C24.4045 31.6908 24.5723 31.4148 24.686 31.1155C25.0151 30.3754 25.3493 29.5982 25.4285 28.7816C25.4985 28.1129 25.3519 27.4394 25.0102 26.8597C25.3439 27.1592 25.7525 27.3633 26.1929 27.4506C26.6333 27.5379 27.0892 27.5051 27.5124 27.3556Z" fill="#463E3B"/>
</g>
<defs>
<linearGradient id="paint0_linear" x1="89.8236" y1="43.3824" x2="89.8236" y2="0" gradientUnits="userSpaceOnUse">
<stop stop-color="#808080" stop-opacity="0.25"/>
<stop offset="0.54" stop-color="#808080" stop-opacity="0.12"/>
<stop offset="1" stop-color="#808080" stop-opacity="0.1"/>
</linearGradient>
<linearGradient id="paint1_linear" x1="47607.4" y1="21811.9" x2="47607.4" y2="11551.3" gradientUnits="userSpaceOnUse">
<stop stop-color="#808080" stop-opacity="0.25"/>
<stop offset="0.54" stop-color="#808080" stop-opacity="0.12"/>
<stop offset="1" stop-color="#808080" stop-opacity="0.1"/>
</linearGradient>
<linearGradient id="paint2_linear" x1="12681.1" y1="90068" x2="12681.1" y2="23255.3" gradientUnits="userSpaceOnUse">
<stop stop-color="#808080" stop-opacity="0.25"/>
<stop offset="0.54" stop-color="#808080" stop-opacity="0.12"/>
<stop offset="1" stop-color="#808080" stop-opacity="0.1"/>
</linearGradient>
<linearGradient id="paint3_linear" x1="-11817.8" y1="12685.9" x2="-11817.8" y2="8230.71" gradientUnits="userSpaceOnUse">
<stop stop-color="#808080" stop-opacity="0.25"/>
<stop offset="0.54" stop-color="#808080" stop-opacity="0.12"/>
<stop offset="1" stop-color="#808080" stop-opacity="0.1"/>
</linearGradient>
<clipPath id="clip0">
<rect width="224" height="169" fill="white"/>
</clipPath>
</defs>
</svg>
